<mxfile host="app.diagrams.net" agent="Mozilla/5.0 (Windows NT 10.0; Win64; x64) AppleWebKit/537.36 (KHTML, like Gecko) Chrome/129.0.0.0 Safari/537.36" version="24.7.17">
  <diagram name="Page-1" id="MSKFdpqFuwcf038P83u8">
    <mxGraphModel dx="8744" dy="2458" grid="1" gridSize="10" guides="1" tooltips="1" connect="1" arrows="1" fold="1" page="1" pageScale="1" pageWidth="827" pageHeight="1169" math="0" shadow="0">
      <root>
        <mxCell id="0" />
        <mxCell id="1" parent="0" />
        <mxCell id="SsRKTywEvcTNQFfVtIS_-1" value="createService" style="text;html=1;align=left;verticalAlign=middle;whiteSpace=wrap;rounded=0;fontStyle=1;fontSize=33;" vertex="1" parent="1">
          <mxGeometry x="-4029" y="130" width="220" height="30" as="geometry" />
        </mxCell>
        <mxCell id="SsRKTywEvcTNQFfVtIS_-2" value="ServiceController" style="swimlane;whiteSpace=wrap;html=1;fillColor=#fff2cc;strokeColor=#d6b656;" vertex="1" parent="1">
          <mxGeometry x="-3269" y="265" width="510" height="545" as="geometry" />
        </mxCell>
        <mxCell id="SsRKTywEvcTNQFfVtIS_-3" style="edgeStyle=orthogonalEdgeStyle;rounded=0;orthogonalLoop=1;jettySize=auto;html=1;fillColor=#d5e8d4;gradientColor=#97d077;strokeColor=#82b366;" edge="1" parent="SsRKTywEvcTNQFfVtIS_-2" source="SsRKTywEvcTNQFfVtIS_-5" target="SsRKTywEvcTNQFfVtIS_-8">
          <mxGeometry relative="1" as="geometry" />
        </mxCell>
        <mxCell id="SsRKTywEvcTNQFfVtIS_-4" value="OK" style="edgeLabel;html=1;align=center;verticalAlign=middle;resizable=0;points=[];fontColor=#00CC00;fontStyle=1" vertex="1" connectable="0" parent="SsRKTywEvcTNQFfVtIS_-3">
          <mxGeometry x="-0.1887" relative="1" as="geometry">
            <mxPoint as="offset" />
          </mxGeometry>
        </mxCell>
        <mxCell id="SsRKTywEvcTNQFfVtIS_-5" value="Check Auth&lt;br&gt;- role admin" style="rounded=0;whiteSpace=wrap;html=1;fillColor=#fff2cc;strokeColor=#d6b656;" vertex="1" parent="SsRKTywEvcTNQFfVtIS_-2">
          <mxGeometry x="195" y="44" width="120" height="60" as="geometry" />
        </mxCell>
        <mxCell id="SsRKTywEvcTNQFfVtIS_-6" style="edgeStyle=orthogonalEdgeStyle;rounded=0;orthogonalLoop=1;jettySize=auto;html=1;fillColor=#d5e8d4;gradientColor=#97d077;strokeColor=#82b366;" edge="1" parent="SsRKTywEvcTNQFfVtIS_-2" source="SsRKTywEvcTNQFfVtIS_-8" target="SsRKTywEvcTNQFfVtIS_-11">
          <mxGeometry relative="1" as="geometry" />
        </mxCell>
        <mxCell id="SsRKTywEvcTNQFfVtIS_-7" value="OK" style="edgeLabel;html=1;align=center;verticalAlign=middle;resizable=0;points=[];fontColor=#00CC00;fontStyle=1" vertex="1" connectable="0" parent="SsRKTywEvcTNQFfVtIS_-6">
          <mxGeometry x="-0.1486" y="2" relative="1" as="geometry">
            <mxPoint as="offset" />
          </mxGeometry>
        </mxCell>
        <mxCell id="SsRKTywEvcTNQFfVtIS_-8" value="CreateServiceDto" style="rounded=0;whiteSpace=wrap;html=1;fillColor=#ffe6cc;strokeColor=#d79b00;" vertex="1" parent="SsRKTywEvcTNQFfVtIS_-2">
          <mxGeometry x="195" y="175" width="120" height="60" as="geometry" />
        </mxCell>
        <mxCell id="SsRKTywEvcTNQFfVtIS_-9" style="edgeStyle=orthogonalEdgeStyle;rounded=0;orthogonalLoop=1;jettySize=auto;html=1;entryX=0.5;entryY=0;entryDx=0;entryDy=0;fillColor=#d5e8d4;gradientColor=#97d077;strokeColor=#82b366;" edge="1" parent="SsRKTywEvcTNQFfVtIS_-2" source="SsRKTywEvcTNQFfVtIS_-11" target="SsRKTywEvcTNQFfVtIS_-12">
          <mxGeometry relative="1" as="geometry" />
        </mxCell>
        <mxCell id="SsRKTywEvcTNQFfVtIS_-10" value="OK" style="edgeLabel;html=1;align=center;verticalAlign=middle;resizable=0;points=[];fontColor=#00CC00;fontStyle=1" vertex="1" connectable="0" parent="SsRKTywEvcTNQFfVtIS_-9">
          <mxGeometry x="-0.1371" relative="1" as="geometry">
            <mxPoint as="offset" />
          </mxGeometry>
        </mxCell>
        <mxCell id="SsRKTywEvcTNQFfVtIS_-11" value="Interceptor(&#39;image&#39;)&lt;br&gt;- file?" style="rounded=0;whiteSpace=wrap;html=1;fillColor=#fff2cc;strokeColor=#d6b656;fontColor=#0000FF;" vertex="1" parent="SsRKTywEvcTNQFfVtIS_-2">
          <mxGeometry x="195" y="305" width="120" height="60" as="geometry" />
        </mxCell>
        <mxCell id="SsRKTywEvcTNQFfVtIS_-12" value="createService(createServiceDto, file?)" style="rounded=0;whiteSpace=wrap;html=1;fillColor=#fff2cc;strokeColor=#d6b656;" vertex="1" parent="SsRKTywEvcTNQFfVtIS_-2">
          <mxGeometry x="135" y="435" width="240" height="60" as="geometry" />
        </mxCell>
        <mxCell id="SsRKTywEvcTNQFfVtIS_-13" value="requete creation d&#39;un service" style="shape=singleArrow;whiteSpace=wrap;html=1;fillColor=#d5e8d4;strokeColor=#82b366;" vertex="1" parent="1">
          <mxGeometry x="-3529" y="260" width="260" height="125" as="geometry" />
        </mxCell>
        <mxCell id="SsRKTywEvcTNQFfVtIS_-14" style="edgeStyle=orthogonalEdgeStyle;rounded=0;orthogonalLoop=1;jettySize=auto;html=1;fillColor=#f8cecc;gradientColor=#ea6b66;strokeColor=#b85450;" edge="1" parent="1" source="SsRKTywEvcTNQFfVtIS_-21">
          <mxGeometry relative="1" as="geometry">
            <mxPoint x="-3969" y="810" as="targetPoint" />
          </mxGeometry>
        </mxCell>
        <mxCell id="SsRKTywEvcTNQFfVtIS_-15" value="error 401" style="edgeLabel;html=1;align=center;verticalAlign=middle;resizable=0;points=[];fontColor=#FF0000;" vertex="1" connectable="0" parent="SsRKTywEvcTNQFfVtIS_-14">
          <mxGeometry x="-0.6242" y="-3" relative="1" as="geometry">
            <mxPoint as="offset" />
          </mxGeometry>
        </mxCell>
        <mxCell id="SsRKTywEvcTNQFfVtIS_-16" value="error 500" style="edgeLabel;html=1;align=center;verticalAlign=middle;resizable=0;points=[];fontColor=#FF0000;" vertex="1" connectable="0" parent="1">
          <mxGeometry x="-3920" y="986" as="geometry" />
        </mxCell>
        <mxCell id="SsRKTywEvcTNQFfVtIS_-17" style="edgeStyle=orthogonalEdgeStyle;rounded=0;orthogonalLoop=1;jettySize=auto;html=1;fillColor=#f8cecc;gradientColor=#ea6b66;strokeColor=#b85450;" edge="1" parent="1" source="SsRKTywEvcTNQFfVtIS_-21">
          <mxGeometry relative="1" as="geometry">
            <mxPoint x="-3869" y="810" as="targetPoint" />
            <Array as="points">
              <mxPoint x="-3869" y="960" />
            </Array>
          </mxGeometry>
        </mxCell>
        <mxCell id="SsRKTywEvcTNQFfVtIS_-18" value="error 400" style="edgeLabel;html=1;align=center;verticalAlign=middle;resizable=0;points=[];fontColor=#FF0000;" vertex="1" connectable="0" parent="SsRKTywEvcTNQFfVtIS_-17">
          <mxGeometry x="-0.6119" y="-2" relative="1" as="geometry">
            <mxPoint as="offset" />
          </mxGeometry>
        </mxCell>
        <mxCell id="SsRKTywEvcTNQFfVtIS_-19" style="edgeStyle=orthogonalEdgeStyle;rounded=0;orthogonalLoop=1;jettySize=auto;html=1;fillColor=#f8cecc;gradientColor=#ea6b66;strokeColor=#b85450;" edge="1" parent="1" source="SsRKTywEvcTNQFfVtIS_-21">
          <mxGeometry relative="1" as="geometry">
            <mxPoint x="-4019" y="810" as="targetPoint" />
            <Array as="points">
              <mxPoint x="-4019" y="1050" />
            </Array>
          </mxGeometry>
        </mxCell>
        <mxCell id="SsRKTywEvcTNQFfVtIS_-20" value="error 404" style="edgeLabel;html=1;align=center;verticalAlign=middle;resizable=0;points=[];fontColor=#FF0000;" vertex="1" connectable="0" parent="SsRKTywEvcTNQFfVtIS_-19">
          <mxGeometry x="-0.5374" y="1" relative="1" as="geometry">
            <mxPoint as="offset" />
          </mxGeometry>
        </mxCell>
        <mxCell id="SsRKTywEvcTNQFfVtIS_-21" value="Throw error" style="swimlane;whiteSpace=wrap;html=1;fillColor=#fad9d5;strokeColor=#ae4132;" vertex="1" parent="1">
          <mxGeometry x="-3549" y="918.5" width="300" height="200" as="geometry" />
        </mxCell>
        <mxCell id="SsRKTywEvcTNQFfVtIS_-22" value="HttpExceptionResponse" style="swimlane;fontStyle=0;childLayout=stackLayout;horizontal=1;startSize=30;horizontalStack=0;resizeParent=1;resizeParentMax=0;resizeLast=0;collapsible=1;marginBottom=0;whiteSpace=wrap;html=1;fillColor=#fad9d5;strokeColor=#ae4132;" vertex="1" parent="SsRKTywEvcTNQFfVtIS_-21">
          <mxGeometry x="60" y="53.5" width="187" height="120" as="geometry" />
        </mxCell>
        <mxCell id="SsRKTywEvcTNQFfVtIS_-23" value="statusCode: string" style="text;strokeColor=none;fillColor=none;align=left;verticalAlign=middle;spacingLeft=4;spacingRight=4;overflow=hidden;points=[[0,0.5],[1,0.5]];portConstraint=eastwest;rotatable=0;whiteSpace=wrap;html=1;" vertex="1" parent="SsRKTywEvcTNQFfVtIS_-22">
          <mxGeometry y="30" width="187" height="30" as="geometry" />
        </mxCell>
        <mxCell id="SsRKTywEvcTNQFfVtIS_-24" value="error: string" style="text;strokeColor=none;fillColor=none;align=left;verticalAlign=middle;spacingLeft=4;spacingRight=4;overflow=hidden;points=[[0,0.5],[1,0.5]];portConstraint=eastwest;rotatable=0;whiteSpace=wrap;html=1;" vertex="1" parent="SsRKTywEvcTNQFfVtIS_-22">
          <mxGeometry y="60" width="187" height="30" as="geometry" />
        </mxCell>
        <mxCell id="SsRKTywEvcTNQFfVtIS_-25" value="message: string | string[]" style="text;strokeColor=none;fillColor=none;align=left;verticalAlign=middle;spacingLeft=4;spacingRight=4;overflow=hidden;points=[[0,0.5],[1,0.5]];portConstraint=eastwest;rotatable=0;whiteSpace=wrap;html=1;" vertex="1" parent="SsRKTywEvcTNQFfVtIS_-22">
          <mxGeometry y="90" width="187" height="30" as="geometry" />
        </mxCell>
        <mxCell id="SsRKTywEvcTNQFfVtIS_-26" style="edgeStyle=orthogonalEdgeStyle;rounded=0;orthogonalLoop=1;jettySize=auto;html=1;entryX=1;entryY=0.25;entryDx=0;entryDy=0;fillColor=#d80073;strokeColor=#A50040;" edge="1" parent="1" source="SsRKTywEvcTNQFfVtIS_-5" target="SsRKTywEvcTNQFfVtIS_-21">
          <mxGeometry relative="1" as="geometry">
            <Array as="points">
              <mxPoint x="-3199" y="339" />
              <mxPoint x="-3199" y="969" />
            </Array>
          </mxGeometry>
        </mxCell>
        <mxCell id="SsRKTywEvcTNQFfVtIS_-27" value="error 401" style="edgeLabel;html=1;align=center;verticalAlign=middle;resizable=0;points=[];fontColor=#FF0000;" vertex="1" connectable="0" parent="SsRKTywEvcTNQFfVtIS_-26">
          <mxGeometry x="-0.8811" y="1" relative="1" as="geometry">
            <mxPoint as="offset" />
          </mxGeometry>
        </mxCell>
        <mxCell id="SsRKTywEvcTNQFfVtIS_-28" style="edgeStyle=orthogonalEdgeStyle;rounded=0;orthogonalLoop=1;jettySize=auto;html=1;entryX=1;entryY=0.5;entryDx=0;entryDy=0;fillColor=#d80073;strokeColor=#A50040;" edge="1" parent="1" source="SsRKTywEvcTNQFfVtIS_-8" target="SsRKTywEvcTNQFfVtIS_-21">
          <mxGeometry relative="1" as="geometry" />
        </mxCell>
        <mxCell id="SsRKTywEvcTNQFfVtIS_-29" value="error 400" style="edgeLabel;html=1;align=center;verticalAlign=middle;resizable=0;points=[];fontColor=#FF0000;" vertex="1" connectable="0" parent="SsRKTywEvcTNQFfVtIS_-28">
          <mxGeometry x="-0.8677" relative="1" as="geometry">
            <mxPoint as="offset" />
          </mxGeometry>
        </mxCell>
        <mxCell id="SsRKTywEvcTNQFfVtIS_-30" style="edgeStyle=orthogonalEdgeStyle;rounded=0;orthogonalLoop=1;jettySize=auto;html=1;entryX=1;entryY=0.75;entryDx=0;entryDy=0;fillColor=#f8cecc;gradientColor=#ea6b66;strokeColor=#b85450;" edge="1" parent="1" source="SsRKTywEvcTNQFfVtIS_-11" target="SsRKTywEvcTNQFfVtIS_-21">
          <mxGeometry relative="1" as="geometry">
            <Array as="points">
              <mxPoint x="-3139" y="600" />
              <mxPoint x="-3139" y="1069" />
            </Array>
          </mxGeometry>
        </mxCell>
        <mxCell id="SsRKTywEvcTNQFfVtIS_-31" value="error 400" style="edgeLabel;html=1;align=center;verticalAlign=middle;resizable=0;points=[];fontColor=#FF0000;" vertex="1" connectable="0" parent="SsRKTywEvcTNQFfVtIS_-30">
          <mxGeometry x="-0.8472" y="-1" relative="1" as="geometry">
            <mxPoint x="16" as="offset" />
          </mxGeometry>
        </mxCell>
        <mxCell id="SsRKTywEvcTNQFfVtIS_-32" value="ServiceService" style="swimlane;whiteSpace=wrap;html=1;fillColor=#e1d5e7;strokeColor=#9673a6;" vertex="1" parent="1">
          <mxGeometry x="-2699" y="265" width="710" height="545" as="geometry" />
        </mxCell>
        <mxCell id="SsRKTywEvcTNQFfVtIS_-97" style="edgeStyle=orthogonalEdgeStyle;rounded=0;orthogonalLoop=1;jettySize=auto;html=1;" edge="1" parent="SsRKTywEvcTNQFfVtIS_-32" source="SsRKTywEvcTNQFfVtIS_-34" target="SsRKTywEvcTNQFfVtIS_-47">
          <mxGeometry relative="1" as="geometry" />
        </mxCell>
        <mxCell id="SsRKTywEvcTNQFfVtIS_-34" value="createService(createServiceDto, file?)" style="rounded=0;whiteSpace=wrap;html=1;fillColor=#e1d5e7;strokeColor=#9673a6;" vertex="1" parent="SsRKTywEvcTNQFfVtIS_-32">
          <mxGeometry x="95" y="55" width="240" height="60" as="geometry" />
        </mxCell>
        <mxCell id="SsRKTywEvcTNQFfVtIS_-41" value="" style="edgeStyle=orthogonalEdgeStyle;rounded=0;orthogonalLoop=1;jettySize=auto;html=1;" edge="1" parent="SsRKTywEvcTNQFfVtIS_-32" source="SsRKTywEvcTNQFfVtIS_-42" target="SsRKTywEvcTNQFfVtIS_-54">
          <mxGeometry relative="1" as="geometry" />
        </mxCell>
        <mxCell id="SsRKTywEvcTNQFfVtIS_-42" value="créer un service avec ou sans&lt;br&gt;- image id" style="whiteSpace=wrap;html=1;fillColor=#e1d5e7;strokeColor=#9673a6;rounded=0;" vertex="1" parent="SsRKTywEvcTNQFfVtIS_-32">
          <mxGeometry x="100" y="242.5" width="230" height="60" as="geometry" />
        </mxCell>
        <mxCell id="SsRKTywEvcTNQFfVtIS_-43" value="" style="edgeStyle=orthogonalEdgeStyle;rounded=0;orthogonalLoop=1;jettySize=auto;html=1;" edge="1" parent="SsRKTywEvcTNQFfVtIS_-32" source="SsRKTywEvcTNQFfVtIS_-47" target="SsRKTywEvcTNQFfVtIS_-49">
          <mxGeometry relative="1" as="geometry" />
        </mxCell>
        <mxCell id="SsRKTywEvcTNQFfVtIS_-44" value="Si oui" style="edgeLabel;html=1;align=center;verticalAlign=middle;resizable=0;points=[];" vertex="1" connectable="0" parent="SsRKTywEvcTNQFfVtIS_-43">
          <mxGeometry x="-0.2779" relative="1" as="geometry">
            <mxPoint x="20" as="offset" />
          </mxGeometry>
        </mxCell>
        <mxCell id="SsRKTywEvcTNQFfVtIS_-98" style="edgeStyle=orthogonalEdgeStyle;rounded=0;orthogonalLoop=1;jettySize=auto;html=1;" edge="1" parent="SsRKTywEvcTNQFfVtIS_-32" source="SsRKTywEvcTNQFfVtIS_-47" target="SsRKTywEvcTNQFfVtIS_-42">
          <mxGeometry relative="1" as="geometry" />
        </mxCell>
        <mxCell id="SsRKTywEvcTNQFfVtIS_-232" value="sinon&amp;nbsp;" style="edgeLabel;html=1;align=center;verticalAlign=middle;resizable=0;points=[];" vertex="1" connectable="0" parent="SsRKTywEvcTNQFfVtIS_-98">
          <mxGeometry x="0.4661" y="1" relative="1" as="geometry">
            <mxPoint y="-9" as="offset" />
          </mxGeometry>
        </mxCell>
        <mxCell id="SsRKTywEvcTNQFfVtIS_-47" value="check si il y a un file" style="whiteSpace=wrap;html=1;fillColor=#e1d5e7;strokeColor=#9673a6;rounded=0;" vertex="1" parent="SsRKTywEvcTNQFfVtIS_-32">
          <mxGeometry x="100" y="138" width="230" height="60" as="geometry" />
        </mxCell>
        <mxCell id="SsRKTywEvcTNQFfVtIS_-49" value="creer image&lt;br&gt;save dans S3" style="whiteSpace=wrap;html=1;fillColor=#e1d5e7;strokeColor=#9673a6;rounded=0;" vertex="1" parent="SsRKTywEvcTNQFfVtIS_-32">
          <mxGeometry x="419" y="138" width="120" height="60" as="geometry" />
        </mxCell>
        <mxCell id="SsRKTywEvcTNQFfVtIS_-50" value="retourne le service" style="whiteSpace=wrap;html=1;fillColor=#e1d5e7;strokeColor=#9673a6;rounded=0;" vertex="1" parent="SsRKTywEvcTNQFfVtIS_-32">
          <mxGeometry x="155" y="455" width="120" height="60" as="geometry" />
        </mxCell>
        <mxCell id="SsRKTywEvcTNQFfVtIS_-95" style="edgeStyle=orthogonalEdgeStyle;rounded=0;orthogonalLoop=1;jettySize=auto;html=1;" edge="1" parent="SsRKTywEvcTNQFfVtIS_-32" source="SsRKTywEvcTNQFfVtIS_-54" target="SsRKTywEvcTNQFfVtIS_-50">
          <mxGeometry relative="1" as="geometry" />
        </mxCell>
        <mxCell id="SsRKTywEvcTNQFfVtIS_-54" value="save service" style="whiteSpace=wrap;html=1;fillColor=#e1d5e7;strokeColor=#9673a6;rounded=0;" vertex="1" parent="SsRKTywEvcTNQFfVtIS_-32">
          <mxGeometry x="100" y="345" width="230" height="60" as="geometry" />
        </mxCell>
        <mxCell id="SsRKTywEvcTNQFfVtIS_-57" style="edgeStyle=orthogonalEdgeStyle;rounded=0;orthogonalLoop=1;jettySize=auto;html=1;entryX=0;entryY=0.5;entryDx=0;entryDy=0;" edge="1" parent="1" source="SsRKTywEvcTNQFfVtIS_-12" target="SsRKTywEvcTNQFfVtIS_-34">
          <mxGeometry relative="1" as="geometry">
            <Array as="points">
              <mxPoint x="-2729" y="730" />
              <mxPoint x="-2729" y="350" />
            </Array>
          </mxGeometry>
        </mxCell>
        <mxCell id="SsRKTywEvcTNQFfVtIS_-58" value="ServiceRepository" style="swimlane;whiteSpace=wrap;html=1;fillColor=#d5e8d4;strokeColor=#82b366;" vertex="1" parent="1">
          <mxGeometry x="-1930" y="585" width="480" height="255" as="geometry" />
        </mxCell>
        <mxCell id="SsRKTywEvcTNQFfVtIS_-59" value="create(createServiceDto)" style="rounded=0;whiteSpace=wrap;html=1;fillColor=#d5e8d4;strokeColor=#82b366;" vertex="1" parent="SsRKTywEvcTNQFfVtIS_-58">
          <mxGeometry x="10" y="42.5" width="240" height="60" as="geometry" />
        </mxCell>
        <mxCell id="SsRKTywEvcTNQFfVtIS_-60" value="save(service)" style="rounded=0;whiteSpace=wrap;html=1;fillColor=#d5e8d4;strokeColor=#82b366;" vertex="1" parent="SsRKTywEvcTNQFfVtIS_-58">
          <mxGeometry x="10" y="139" width="120" height="60" as="geometry" />
        </mxCell>
        <mxCell id="SsRKTywEvcTNQFfVtIS_-61" style="edgeStyle=orthogonalEdgeStyle;rounded=0;orthogonalLoop=1;jettySize=auto;html=1;entryX=0;entryY=0.5;entryDx=0;entryDy=0;" edge="1" parent="1" source="SsRKTywEvcTNQFfVtIS_-42" target="SsRKTywEvcTNQFfVtIS_-59">
          <mxGeometry relative="1" as="geometry">
            <Array as="points">
              <mxPoint x="-2145" y="550" />
              <mxPoint x="-2145" y="657" />
            </Array>
          </mxGeometry>
        </mxCell>
        <mxCell id="SsRKTywEvcTNQFfVtIS_-63" value="ImageRepository" style="swimlane;whiteSpace=wrap;html=1;fillColor=#d5e8d4;strokeColor=#82b366;" vertex="1" parent="1">
          <mxGeometry x="-1910" y="275" width="480" height="255" as="geometry" />
        </mxCell>
        <mxCell id="SsRKTywEvcTNQFfVtIS_-64" value="create(image)" style="rounded=0;whiteSpace=wrap;html=1;fillColor=#d5e8d4;strokeColor=#82b366;" vertex="1" parent="SsRKTywEvcTNQFfVtIS_-63">
          <mxGeometry x="10" y="42.5" width="240" height="60" as="geometry" />
        </mxCell>
        <mxCell id="SsRKTywEvcTNQFfVtIS_-65" value="save(image)" style="rounded=0;whiteSpace=wrap;html=1;fillColor=#d5e8d4;strokeColor=#82b366;" vertex="1" parent="SsRKTywEvcTNQFfVtIS_-63">
          <mxGeometry x="10" y="139" width="120" height="60" as="geometry" />
        </mxCell>
        <mxCell id="SsRKTywEvcTNQFfVtIS_-66" style="edgeStyle=orthogonalEdgeStyle;rounded=0;orthogonalLoop=1;jettySize=auto;html=1;entryX=0;entryY=0.5;entryDx=0;entryDy=0;" edge="1" parent="1" source="SsRKTywEvcTNQFfVtIS_-49" target="SsRKTywEvcTNQFfVtIS_-64">
          <mxGeometry relative="1" as="geometry">
            <Array as="points">
              <mxPoint x="-2015" y="420" />
              <mxPoint x="-2015" y="347" />
            </Array>
          </mxGeometry>
        </mxCell>
        <mxCell id="SsRKTywEvcTNQFfVtIS_-67" value="AwsS3Service" style="swimlane;whiteSpace=wrap;html=1;fillColor=#ffcd28;gradientColor=#ffa500;strokeColor=#d79b00;" vertex="1" parent="1">
          <mxGeometry x="-2191" y="877" width="200" height="200" as="geometry" />
        </mxCell>
        <mxCell id="SsRKTywEvcTNQFfVtIS_-68" style="edgeStyle=orthogonalEdgeStyle;rounded=0;orthogonalLoop=1;jettySize=auto;html=1;" edge="1" parent="1" source="SsRKTywEvcTNQFfVtIS_-49" target="SsRKTywEvcTNQFfVtIS_-67">
          <mxGeometry relative="1" as="geometry">
            <Array as="points">
              <mxPoint x="-2059" y="765" />
            </Array>
          </mxGeometry>
        </mxCell>
        <mxCell id="SsRKTywEvcTNQFfVtIS_-72" value="Service" style="swimlane;fontStyle=0;childLayout=stackLayout;horizontal=1;startSize=30;horizontalStack=0;resizeParent=1;resizeParentMax=0;resizeLast=0;collapsible=1;marginBottom=0;whiteSpace=wrap;html=1;fillColor=#60a917;fontColor=#ffffff;strokeColor=#2D7600;" vertex="1" parent="1">
          <mxGeometry x="-2622" y="883" width="220" height="120" as="geometry" />
        </mxCell>
        <mxCell id="SsRKTywEvcTNQFfVtIS_-73" value="title: string" style="text;strokeColor=none;fillColor=none;align=left;verticalAlign=middle;spacingLeft=4;spacingRight=4;overflow=hidden;points=[[0,0.5],[1,0.5]];portConstraint=eastwest;rotatable=0;whiteSpace=wrap;html=1;" vertex="1" parent="SsRKTywEvcTNQFfVtIS_-72">
          <mxGeometry y="30" width="220" height="30" as="geometry" />
        </mxCell>
        <mxCell id="SsRKTywEvcTNQFfVtIS_-74" value="description: string" style="text;strokeColor=none;fillColor=none;align=left;verticalAlign=middle;spacingLeft=4;spacingRight=4;overflow=hidden;points=[[0,0.5],[1,0.5]];portConstraint=eastwest;rotatable=0;whiteSpace=wrap;html=1;" vertex="1" parent="SsRKTywEvcTNQFfVtIS_-72">
          <mxGeometry y="60" width="220" height="30" as="geometry" />
        </mxCell>
        <mxCell id="SsRKTywEvcTNQFfVtIS_-76" value="Image: Image | null" style="text;strokeColor=none;fillColor=none;align=left;verticalAlign=middle;spacingLeft=4;spacingRight=4;overflow=hidden;points=[[0,0.5],[1,0.5]];portConstraint=eastwest;rotatable=0;whiteSpace=wrap;html=1;" vertex="1" parent="SsRKTywEvcTNQFfVtIS_-72">
          <mxGeometry y="90" width="220" height="30" as="geometry" />
        </mxCell>
        <mxCell id="SsRKTywEvcTNQFfVtIS_-77" style="edgeStyle=orthogonalEdgeStyle;rounded=0;orthogonalLoop=1;jettySize=auto;html=1;entryX=0.625;entryY=-0.034;entryDx=0;entryDy=0;entryPerimeter=0;fillColor=#60a917;strokeColor=#2D7600;" edge="1" parent="1" source="SsRKTywEvcTNQFfVtIS_-50" target="SsRKTywEvcTNQFfVtIS_-72">
          <mxGeometry relative="1" as="geometry" />
        </mxCell>
        <mxCell id="SsRKTywEvcTNQFfVtIS_-78" style="edgeStyle=orthogonalEdgeStyle;rounded=0;orthogonalLoop=1;jettySize=auto;html=1;fillColor=#d5e8d4;gradientColor=#97d077;strokeColor=#82b366;exitX=0.504;exitY=1.111;exitDx=0;exitDy=0;exitPerimeter=0;" edge="1" parent="1" source="SsRKTywEvcTNQFfVtIS_-76">
          <mxGeometry relative="1" as="geometry">
            <mxPoint x="-4040" y="810" as="targetPoint" />
            <Array as="points">
              <mxPoint x="-2511" y="1150" />
              <mxPoint x="-4040" y="1150" />
            </Array>
            <mxPoint x="-2510" y="1040" as="sourcePoint" />
          </mxGeometry>
        </mxCell>
        <mxCell id="SsRKTywEvcTNQFfVtIS_-79" value="Rerour 201" style="edgeLabel;html=1;align=center;verticalAlign=middle;resizable=0;points=[];fontColor=#00CC00;" vertex="1" connectable="0" parent="SsRKTywEvcTNQFfVtIS_-78">
          <mxGeometry x="0.1333" relative="1" as="geometry">
            <mxPoint y="1" as="offset" />
          </mxGeometry>
        </mxCell>
        <mxCell id="SsRKTywEvcTNQFfVtIS_-80" value="Frontend" style="swimlane;whiteSpace=wrap;html=1;fillColor=#dae8fc;strokeColor=#6c8ebf;" vertex="1" parent="1">
          <mxGeometry x="-4039" y="275" width="520" height="545" as="geometry" />
        </mxCell>
        <mxCell id="SsRKTywEvcTNQFfVtIS_-81" value="POST&lt;span style=&quot;white-space: pre;&quot;&gt;&#x9;&lt;/span&gt;/service/create" style="rounded=0;whiteSpace=wrap;html=1;fillColor=#dae8fc;strokeColor=#6c8ebf;" vertex="1" parent="SsRKTywEvcTNQFfVtIS_-80">
          <mxGeometry x="30" y="44" width="460" height="60" as="geometry" />
        </mxCell>
        <mxCell id="SsRKTywEvcTNQFfVtIS_-82" style="edgeStyle=orthogonalEdgeStyle;rounded=0;orthogonalLoop=1;jettySize=auto;html=1;" edge="1" parent="SsRKTywEvcTNQFfVtIS_-80" source="SsRKTywEvcTNQFfVtIS_-83" target="SsRKTywEvcTNQFfVtIS_-81">
          <mxGeometry relative="1" as="geometry" />
        </mxCell>
        <mxCell id="SsRKTywEvcTNQFfVtIS_-83" value="Body" style="swimlane;whiteSpace=wrap;html=1;fillColor=#dae8fc;strokeColor=#6c8ebf;" vertex="1" parent="SsRKTywEvcTNQFfVtIS_-80">
          <mxGeometry x="30" y="215" width="200" height="235" as="geometry" />
        </mxCell>
        <mxCell id="SsRKTywEvcTNQFfVtIS_-84" value="CreateServiceDto" style="swimlane;fontStyle=0;childLayout=stackLayout;horizontal=1;startSize=30;horizontalStack=0;resizeParent=1;resizeParentMax=0;resizeLast=0;collapsible=1;marginBottom=0;whiteSpace=wrap;html=1;fillColor=#ffe6cc;strokeColor=#d79b00;" vertex="1" parent="SsRKTywEvcTNQFfVtIS_-83">
          <mxGeometry x="30" y="55" width="140" height="120" as="geometry" />
        </mxCell>
        <mxCell id="SsRKTywEvcTNQFfVtIS_-85" value="title: string" style="text;strokeColor=none;fillColor=none;align=left;verticalAlign=middle;spacingLeft=4;spacingRight=4;overflow=hidden;points=[[0,0.5],[1,0.5]];portConstraint=eastwest;rotatable=0;whiteSpace=wrap;html=1;" vertex="1" parent="SsRKTywEvcTNQFfVtIS_-84">
          <mxGeometry y="30" width="140" height="30" as="geometry" />
        </mxCell>
        <mxCell id="SsRKTywEvcTNQFfVtIS_-86" value="description: string" style="text;strokeColor=none;fillColor=none;align=left;verticalAlign=middle;spacingLeft=4;spacingRight=4;overflow=hidden;points=[[0,0.5],[1,0.5]];portConstraint=eastwest;rotatable=0;whiteSpace=wrap;html=1;" vertex="1" parent="SsRKTywEvcTNQFfVtIS_-84">
          <mxGeometry y="60" width="140" height="30" as="geometry" />
        </mxCell>
        <mxCell id="SsRKTywEvcTNQFfVtIS_-88" value="image: File | null" style="text;strokeColor=none;fillColor=none;align=left;verticalAlign=middle;spacingLeft=4;spacingRight=4;overflow=hidden;points=[[0,0.5],[1,0.5]];portConstraint=eastwest;rotatable=0;whiteSpace=wrap;html=1;fontColor=#0000FF;" vertex="1" parent="SsRKTywEvcTNQFfVtIS_-84">
          <mxGeometry y="90" width="140" height="30" as="geometry" />
        </mxCell>
        <mxCell id="SsRKTywEvcTNQFfVtIS_-89" value="Header" style="swimlane;whiteSpace=wrap;html=1;fillColor=#dae8fc;strokeColor=#6c8ebf;" vertex="1" parent="SsRKTywEvcTNQFfVtIS_-80">
          <mxGeometry x="270" y="215" width="200" height="95" as="geometry" />
        </mxCell>
        <mxCell id="SsRKTywEvcTNQFfVtIS_-90" value="Authorization: token" style="text;html=1;align=left;verticalAlign=middle;whiteSpace=wrap;rounded=0;" vertex="1" parent="SsRKTywEvcTNQFfVtIS_-89">
          <mxGeometry x="10" y="39" width="170" height="30" as="geometry" />
        </mxCell>
        <mxCell id="SsRKTywEvcTNQFfVtIS_-91" style="edgeStyle=orthogonalEdgeStyle;rounded=0;orthogonalLoop=1;jettySize=auto;html=1;entryX=0.548;entryY=1.019;entryDx=0;entryDy=0;entryPerimeter=0;" edge="1" parent="SsRKTywEvcTNQFfVtIS_-80" source="SsRKTywEvcTNQFfVtIS_-89" target="SsRKTywEvcTNQFfVtIS_-81">
          <mxGeometry relative="1" as="geometry" />
        </mxCell>
        <mxCell id="SsRKTywEvcTNQFfVtIS_-93" style="edgeStyle=orthogonalEdgeStyle;rounded=0;orthogonalLoop=1;jettySize=auto;html=1;entryX=1.002;entryY=0.39;entryDx=0;entryDy=0;entryPerimeter=0;" edge="1" parent="1" source="SsRKTywEvcTNQFfVtIS_-65" target="SsRKTywEvcTNQFfVtIS_-42">
          <mxGeometry relative="1" as="geometry">
            <Array as="points">
              <mxPoint x="-2030" y="444" />
              <mxPoint x="-2030" y="530" />
              <mxPoint x="-2368" y="530" />
            </Array>
          </mxGeometry>
        </mxCell>
        <mxCell id="SsRKTywEvcTNQFfVtIS_-94" value="Récupération ID de l&#39;image" style="edgeLabel;html=1;align=center;verticalAlign=middle;resizable=0;points=[];" vertex="1" connectable="0" parent="SsRKTywEvcTNQFfVtIS_-93">
          <mxGeometry x="0.249" y="2" relative="1" as="geometry">
            <mxPoint x="50" y="-2" as="offset" />
          </mxGeometry>
        </mxCell>
        <mxCell id="SsRKTywEvcTNQFfVtIS_-99" style="edgeStyle=orthogonalEdgeStyle;rounded=0;orthogonalLoop=1;jettySize=auto;html=1;entryX=0;entryY=0.5;entryDx=0;entryDy=0;" edge="1" parent="1" source="SsRKTywEvcTNQFfVtIS_-54" target="SsRKTywEvcTNQFfVtIS_-60">
          <mxGeometry relative="1" as="geometry">
            <Array as="points">
              <mxPoint x="-2180" y="640" />
              <mxPoint x="-2180" y="754" />
            </Array>
          </mxGeometry>
        </mxCell>
        <mxCell id="SsRKTywEvcTNQFfVtIS_-100" value="Frontend" style="swimlane;whiteSpace=wrap;html=1;fillColor=#dae8fc;strokeColor=#6c8ebf;" vertex="1" parent="1">
          <mxGeometry x="-4039" y="1325.5" width="520" height="184.5" as="geometry" />
        </mxCell>
        <mxCell id="SsRKTywEvcTNQFfVtIS_-101" value="GET&lt;span style=&quot;white-space: pre;&quot;&gt;&#x9;&lt;/span&gt;&lt;span style=&quot;white-space: pre;&quot;&gt;&#x9;&lt;/span&gt;/services" style="rounded=0;whiteSpace=wrap;html=1;fillColor=#dae8fc;strokeColor=#6c8ebf;" vertex="1" parent="SsRKTywEvcTNQFfVtIS_-100">
          <mxGeometry x="30" y="68.11999999999989" width="460" height="60" as="geometry" />
        </mxCell>
        <mxCell id="SsRKTywEvcTNQFfVtIS_-102" value="ServicesController" style="swimlane;whiteSpace=wrap;html=1;fillColor=#fff2cc;strokeColor=#d6b656;" vertex="1" parent="1">
          <mxGeometry x="-3310" y="1323.12" width="520" height="186.88" as="geometry" />
        </mxCell>
        <mxCell id="SsRKTywEvcTNQFfVtIS_-103" style="edgeStyle=orthogonalEdgeStyle;rounded=0;orthogonalLoop=1;jettySize=auto;html=1;fillColor=#d5e8d4;gradientColor=#97d077;strokeColor=#82b366;" edge="1" parent="SsRKTywEvcTNQFfVtIS_-102">
          <mxGeometry relative="1" as="geometry">
            <mxPoint x="255" y="104" as="sourcePoint" />
          </mxGeometry>
        </mxCell>
        <mxCell id="SsRKTywEvcTNQFfVtIS_-104" value="OK" style="edgeLabel;html=1;align=center;verticalAlign=middle;resizable=0;points=[];fontColor=#00CC00;fontStyle=1" vertex="1" connectable="0" parent="SsRKTywEvcTNQFfVtIS_-103">
          <mxGeometry x="-0.1887" relative="1" as="geometry">
            <mxPoint as="offset" />
          </mxGeometry>
        </mxCell>
        <mxCell id="SsRKTywEvcTNQFfVtIS_-105" style="edgeStyle=orthogonalEdgeStyle;rounded=0;orthogonalLoop=1;jettySize=auto;html=1;fillColor=#d5e8d4;gradientColor=#97d077;strokeColor=#82b366;" edge="1" parent="SsRKTywEvcTNQFfVtIS_-102">
          <mxGeometry relative="1" as="geometry">
            <mxPoint x="255" y="235" as="sourcePoint" />
          </mxGeometry>
        </mxCell>
        <mxCell id="SsRKTywEvcTNQFfVtIS_-106" value="OK" style="edgeLabel;html=1;align=center;verticalAlign=middle;resizable=0;points=[];fontColor=#00CC00;fontStyle=1" vertex="1" connectable="0" parent="SsRKTywEvcTNQFfVtIS_-105">
          <mxGeometry x="-0.1486" y="2" relative="1" as="geometry">
            <mxPoint as="offset" />
          </mxGeometry>
        </mxCell>
        <mxCell id="SsRKTywEvcTNQFfVtIS_-107" style="edgeStyle=orthogonalEdgeStyle;rounded=0;orthogonalLoop=1;jettySize=auto;html=1;entryX=0.5;entryY=0;entryDx=0;entryDy=0;fillColor=#d5e8d4;gradientColor=#97d077;strokeColor=#82b366;" edge="1" parent="SsRKTywEvcTNQFfVtIS_-102">
          <mxGeometry relative="1" as="geometry">
            <mxPoint x="255" y="365" as="sourcePoint" />
          </mxGeometry>
        </mxCell>
        <mxCell id="SsRKTywEvcTNQFfVtIS_-108" value="OK" style="edgeLabel;html=1;align=center;verticalAlign=middle;resizable=0;points=[];fontColor=#00CC00;fontStyle=1" vertex="1" connectable="0" parent="SsRKTywEvcTNQFfVtIS_-107">
          <mxGeometry x="-0.1371" relative="1" as="geometry">
            <mxPoint as="offset" />
          </mxGeometry>
        </mxCell>
        <mxCell id="SsRKTywEvcTNQFfVtIS_-109" value="getServices()" style="rounded=0;whiteSpace=wrap;html=1;fillColor=#fff2cc;strokeColor=#d6b656;" vertex="1" parent="SsRKTywEvcTNQFfVtIS_-102">
          <mxGeometry x="100" y="46.88" width="300" height="60" as="geometry" />
        </mxCell>
        <mxCell id="SsRKTywEvcTNQFfVtIS_-110" value="ServiceService" style="swimlane;whiteSpace=wrap;html=1;fillColor=#e1d5e7;strokeColor=#9673a6;" vertex="1" parent="1">
          <mxGeometry x="-2727" y="1320" width="669" height="460" as="geometry" />
        </mxCell>
        <mxCell id="SsRKTywEvcTNQFfVtIS_-111" style="edgeStyle=orthogonalEdgeStyle;rounded=0;orthogonalLoop=1;jettySize=auto;html=1;" edge="1" parent="SsRKTywEvcTNQFfVtIS_-110">
          <mxGeometry relative="1" as="geometry">
            <mxPoint x="215.19999999999982" y="139" as="targetPoint" />
          </mxGeometry>
        </mxCell>
        <mxCell id="SsRKTywEvcTNQFfVtIS_-112" value="" style="edgeStyle=orthogonalEdgeStyle;rounded=0;orthogonalLoop=1;jettySize=auto;html=1;" edge="1" parent="SsRKTywEvcTNQFfVtIS_-110">
          <mxGeometry relative="1" as="geometry">
            <mxPoint x="215.19999999999982" y="224" as="targetPoint" />
          </mxGeometry>
        </mxCell>
        <mxCell id="SsRKTywEvcTNQFfVtIS_-113" value="" style="edgeStyle=orthogonalEdgeStyle;rounded=0;orthogonalLoop=1;jettySize=auto;html=1;" edge="1" parent="SsRKTywEvcTNQFfVtIS_-110">
          <mxGeometry relative="1" as="geometry">
            <mxPoint x="215.19999999999982" y="307" as="targetPoint" />
          </mxGeometry>
        </mxCell>
        <mxCell id="SsRKTywEvcTNQFfVtIS_-114" value="" style="edgeStyle=orthogonalEdgeStyle;rounded=0;orthogonalLoop=1;jettySize=auto;html=1;" edge="1" parent="SsRKTywEvcTNQFfVtIS_-110">
          <mxGeometry relative="1" as="geometry">
            <mxPoint x="215.19999999999982" y="388" as="targetPoint" />
          </mxGeometry>
        </mxCell>
        <mxCell id="SsRKTywEvcTNQFfVtIS_-115" value="" style="edgeStyle=orthogonalEdgeStyle;rounded=0;orthogonalLoop=1;jettySize=auto;html=1;" edge="1" parent="SsRKTywEvcTNQFfVtIS_-110">
          <mxGeometry relative="1" as="geometry">
            <mxPoint x="465" y="500" as="targetPoint" />
          </mxGeometry>
        </mxCell>
        <mxCell id="SsRKTywEvcTNQFfVtIS_-116" value="Si oui" style="edgeLabel;html=1;align=center;verticalAlign=middle;resizable=0;points=[];" vertex="1" connectable="0" parent="SsRKTywEvcTNQFfVtIS_-115">
          <mxGeometry x="-0.2779" relative="1" as="geometry">
            <mxPoint x="20" as="offset" />
          </mxGeometry>
        </mxCell>
        <mxCell id="SsRKTywEvcTNQFfVtIS_-117" value="" style="edgeStyle=orthogonalEdgeStyle;rounded=0;orthogonalLoop=1;jettySize=auto;html=1;" edge="1" parent="SsRKTywEvcTNQFfVtIS_-110">
          <mxGeometry relative="1" as="geometry">
            <mxPoint x="215" y="530" as="sourcePoint" />
          </mxGeometry>
        </mxCell>
        <mxCell id="SsRKTywEvcTNQFfVtIS_-118" value="Si non" style="edgeLabel;html=1;align=center;verticalAlign=middle;resizable=0;points=[];" vertex="1" connectable="0" parent="SsRKTywEvcTNQFfVtIS_-117">
          <mxGeometry x="-0.2198" y="-2" relative="1" as="geometry">
            <mxPoint as="offset" />
          </mxGeometry>
        </mxCell>
        <mxCell id="SsRKTywEvcTNQFfVtIS_-119" value="" style="edgeStyle=orthogonalEdgeStyle;rounded=0;orthogonalLoop=1;jettySize=auto;html=1;" edge="1" parent="SsRKTywEvcTNQFfVtIS_-110">
          <mxGeometry relative="1" as="geometry">
            <mxPoint x="525.1999999999998" y="555" as="targetPoint" />
          </mxGeometry>
        </mxCell>
        <mxCell id="SsRKTywEvcTNQFfVtIS_-120" style="edgeStyle=orthogonalEdgeStyle;rounded=0;orthogonalLoop=1;jettySize=auto;html=1;" edge="1" parent="SsRKTywEvcTNQFfVtIS_-110">
          <mxGeometry relative="1" as="geometry">
            <mxPoint x="215.19999999999982" y="470" as="targetPoint" />
          </mxGeometry>
        </mxCell>
        <mxCell id="SsRKTywEvcTNQFfVtIS_-121" value="" style="edgeStyle=orthogonalEdgeStyle;rounded=0;orthogonalLoop=1;jettySize=auto;html=1;" edge="1" parent="SsRKTywEvcTNQFfVtIS_-110" source="SsRKTywEvcTNQFfVtIS_-124" target="SsRKTywEvcTNQFfVtIS_-127">
          <mxGeometry relative="1" as="geometry" />
        </mxCell>
        <mxCell id="SsRKTywEvcTNQFfVtIS_-122" value="" style="edgeStyle=orthogonalEdgeStyle;rounded=0;orthogonalLoop=1;jettySize=auto;html=1;" edge="1" parent="SsRKTywEvcTNQFfVtIS_-110" source="SsRKTywEvcTNQFfVtIS_-124" target="SsRKTywEvcTNQFfVtIS_-127">
          <mxGeometry relative="1" as="geometry" />
        </mxCell>
        <mxCell id="SsRKTywEvcTNQFfVtIS_-123" style="edgeStyle=orthogonalEdgeStyle;rounded=0;orthogonalLoop=1;jettySize=auto;html=1;entryX=0.5;entryY=0;entryDx=0;entryDy=0;" edge="1" parent="SsRKTywEvcTNQFfVtIS_-110" source="SsRKTywEvcTNQFfVtIS_-124" target="SsRKTywEvcTNQFfVtIS_-128">
          <mxGeometry relative="1" as="geometry" />
        </mxCell>
        <mxCell id="SsRKTywEvcTNQFfVtIS_-124" value="recuperation des services" style="whiteSpace=wrap;html=1;rounded=0;fillColor=#e1d5e7;strokeColor=#9673a6;" vertex="1" parent="SsRKTywEvcTNQFfVtIS_-110">
          <mxGeometry x="205" y="180" width="300" height="60" as="geometry" />
        </mxCell>
        <mxCell id="SsRKTywEvcTNQFfVtIS_-125" style="edgeStyle=orthogonalEdgeStyle;rounded=0;orthogonalLoop=1;jettySize=auto;html=1;" edge="1" parent="SsRKTywEvcTNQFfVtIS_-110" source="SsRKTywEvcTNQFfVtIS_-126" target="SsRKTywEvcTNQFfVtIS_-124">
          <mxGeometry relative="1" as="geometry" />
        </mxCell>
        <mxCell id="SsRKTywEvcTNQFfVtIS_-126" value="getServices()" style="rounded=0;whiteSpace=wrap;html=1;fillColor=#e1d5e7;strokeColor=#9673a6;" vertex="1" parent="SsRKTywEvcTNQFfVtIS_-110">
          <mxGeometry x="205" y="60" width="300" height="60" as="geometry" />
        </mxCell>
        <mxCell id="SsRKTywEvcTNQFfVtIS_-127" value="pas de service&lt;br&gt;return tableau vide" style="whiteSpace=wrap;html=1;fillColor=#e1d5e7;strokeColor=#9673a6;rounded=0;" vertex="1" parent="SsRKTywEvcTNQFfVtIS_-110">
          <mxGeometry x="385" y="328" width="120" height="60" as="geometry" />
        </mxCell>
        <mxCell id="SsRKTywEvcTNQFfVtIS_-128" value="retourne&lt;br&gt;un tableau de&amp;nbsp;&lt;br&gt;Services" style="whiteSpace=wrap;html=1;fillColor=#e1d5e7;strokeColor=#9673a6;rounded=0;" vertex="1" parent="SsRKTywEvcTNQFfVtIS_-110">
          <mxGeometry x="205" y="328" width="120" height="60" as="geometry" />
        </mxCell>
        <mxCell id="SsRKTywEvcTNQFfVtIS_-129" value="ServiceRepository" style="swimlane;whiteSpace=wrap;html=1;fillColor=#d5e8d4;strokeColor=#82b366;" vertex="1" parent="1">
          <mxGeometry x="-1998" y="1320" width="480" height="255" as="geometry" />
        </mxCell>
        <mxCell id="SsRKTywEvcTNQFfVtIS_-130" value="find()" style="rounded=0;whiteSpace=wrap;html=1;fillColor=#d5e8d4;strokeColor=#82b366;" vertex="1" parent="SsRKTywEvcTNQFfVtIS_-129">
          <mxGeometry x="30" y="52.680000000000064" width="120" height="60" as="geometry" />
        </mxCell>
        <mxCell id="SsRKTywEvcTNQFfVtIS_-131" value="requete recuperation des services" style="shape=singleArrow;whiteSpace=wrap;html=1;fillColor=#d5e8d4;strokeColor=#82b366;" vertex="1" parent="1">
          <mxGeometry x="-3539" y="1331.12" width="260" height="125" as="geometry" />
        </mxCell>
        <mxCell id="SsRKTywEvcTNQFfVtIS_-132" style="edgeStyle=orthogonalEdgeStyle;rounded=0;orthogonalLoop=1;jettySize=auto;html=1;entryX=0;entryY=0.5;entryDx=0;entryDy=0;" edge="1" parent="1" source="SsRKTywEvcTNQFfVtIS_-124" target="SsRKTywEvcTNQFfVtIS_-130">
          <mxGeometry relative="1" as="geometry" />
        </mxCell>
        <mxCell id="SsRKTywEvcTNQFfVtIS_-133" style="edgeStyle=orthogonalEdgeStyle;rounded=0;orthogonalLoop=1;jettySize=auto;html=1;fillColor=#e51400;strokeColor=#B20000;" edge="1" parent="1" source="SsRKTywEvcTNQFfVtIS_-135">
          <mxGeometry relative="1" as="geometry">
            <mxPoint x="-3760" y="1510" as="targetPoint" />
          </mxGeometry>
        </mxCell>
        <mxCell id="SsRKTywEvcTNQFfVtIS_-134" value="error 500" style="edgeLabel;html=1;align=center;verticalAlign=middle;resizable=0;points=[];fontColor=#FF0000;" vertex="1" connectable="0" parent="SsRKTywEvcTNQFfVtIS_-133">
          <mxGeometry x="-0.3753" y="-2" relative="1" as="geometry">
            <mxPoint as="offset" />
          </mxGeometry>
        </mxCell>
        <mxCell id="SsRKTywEvcTNQFfVtIS_-135" value="Throw error" style="swimlane;whiteSpace=wrap;html=1;fillColor=#fad9d5;strokeColor=#ae4132;" vertex="1" parent="1">
          <mxGeometry x="-3550" y="1587.37" width="300" height="200" as="geometry" />
        </mxCell>
        <mxCell id="SsRKTywEvcTNQFfVtIS_-136" value="HttpExceptionResponse" style="swimlane;fontStyle=0;childLayout=stackLayout;horizontal=1;startSize=30;horizontalStack=0;resizeParent=1;resizeParentMax=0;resizeLast=0;collapsible=1;marginBottom=0;whiteSpace=wrap;html=1;fillColor=#fad9d5;strokeColor=#ae4132;" vertex="1" parent="SsRKTywEvcTNQFfVtIS_-135">
          <mxGeometry x="60" y="53.5" width="187" height="120" as="geometry" />
        </mxCell>
        <mxCell id="SsRKTywEvcTNQFfVtIS_-137" value="statusCode: string" style="text;strokeColor=none;fillColor=none;align=left;verticalAlign=middle;spacingLeft=4;spacingRight=4;overflow=hidden;points=[[0,0.5],[1,0.5]];portConstraint=eastwest;rotatable=0;whiteSpace=wrap;html=1;" vertex="1" parent="SsRKTywEvcTNQFfVtIS_-136">
          <mxGeometry y="30" width="187" height="30" as="geometry" />
        </mxCell>
        <mxCell id="SsRKTywEvcTNQFfVtIS_-138" value="error: string" style="text;strokeColor=none;fillColor=none;align=left;verticalAlign=middle;spacingLeft=4;spacingRight=4;overflow=hidden;points=[[0,0.5],[1,0.5]];portConstraint=eastwest;rotatable=0;whiteSpace=wrap;html=1;" vertex="1" parent="SsRKTywEvcTNQFfVtIS_-136">
          <mxGeometry y="60" width="187" height="30" as="geometry" />
        </mxCell>
        <mxCell id="SsRKTywEvcTNQFfVtIS_-139" value="message: string | string[]" style="text;strokeColor=none;fillColor=none;align=left;verticalAlign=middle;spacingLeft=4;spacingRight=4;overflow=hidden;points=[[0,0.5],[1,0.5]];portConstraint=eastwest;rotatable=0;whiteSpace=wrap;html=1;" vertex="1" parent="SsRKTywEvcTNQFfVtIS_-136">
          <mxGeometry y="90" width="187" height="30" as="geometry" />
        </mxCell>
        <mxCell id="SsRKTywEvcTNQFfVtIS_-140" style="edgeStyle=orthogonalEdgeStyle;rounded=0;orthogonalLoop=1;jettySize=auto;html=1;entryX=0.25;entryY=1;entryDx=0;entryDy=0;fillColor=#60a917;strokeColor=#2D7600;" edge="1" parent="1" source="SsRKTywEvcTNQFfVtIS_-142" target="SsRKTywEvcTNQFfVtIS_-100">
          <mxGeometry relative="1" as="geometry">
            <Array as="points">
              <mxPoint x="-2150" y="2000" />
              <mxPoint x="-3909" y="2000" />
            </Array>
          </mxGeometry>
        </mxCell>
        <mxCell id="SsRKTywEvcTNQFfVtIS_-141" value="return 200" style="edgeLabel;html=1;align=center;verticalAlign=middle;resizable=0;points=[];fontColor=#00CC00;" vertex="1" connectable="0" parent="SsRKTywEvcTNQFfVtIS_-140">
          <mxGeometry x="0.1162" y="-5" relative="1" as="geometry">
            <mxPoint as="offset" />
          </mxGeometry>
        </mxCell>
        <mxCell id="SsRKTywEvcTNQFfVtIS_-142" value="Service" style="swimlane;fontStyle=0;childLayout=stackLayout;horizontal=1;startSize=30;horizontalStack=0;resizeParent=1;resizeParentMax=0;resizeLast=0;collapsible=1;marginBottom=0;whiteSpace=wrap;html=1;fillColor=#60a917;fontColor=#ffffff;strokeColor=#2D7600;" vertex="1" parent="1">
          <mxGeometry x="-2317" y="1851.75" width="220" height="60" as="geometry" />
        </mxCell>
        <mxCell id="SsRKTywEvcTNQFfVtIS_-143" value="services: []" style="text;strokeColor=none;fillColor=none;align=left;verticalAlign=middle;spacingLeft=4;spacingRight=4;overflow=hidden;points=[[0,0.5],[1,0.5]];portConstraint=eastwest;rotatable=0;whiteSpace=wrap;html=1;" vertex="1" parent="SsRKTywEvcTNQFfVtIS_-142">
          <mxGeometry y="30" width="220" height="30" as="geometry" />
        </mxCell>
        <mxCell id="SsRKTywEvcTNQFfVtIS_-144" style="edgeStyle=orthogonalEdgeStyle;rounded=0;orthogonalLoop=1;jettySize=auto;html=1;fillColor=#60a917;strokeColor=#2D7600;" edge="1" parent="1" source="SsRKTywEvcTNQFfVtIS_-146">
          <mxGeometry relative="1" as="geometry">
            <mxPoint x="-3830" y="1500" as="targetPoint" />
          </mxGeometry>
        </mxCell>
        <mxCell id="SsRKTywEvcTNQFfVtIS_-145" value="return 200" style="edgeLabel;html=1;align=center;verticalAlign=middle;resizable=0;points=[];fontColor=#00CC00;" vertex="1" connectable="0" parent="SsRKTywEvcTNQFfVtIS_-144">
          <mxGeometry x="-0.1078" y="-3" relative="1" as="geometry">
            <mxPoint x="1" as="offset" />
          </mxGeometry>
        </mxCell>
        <mxCell id="SsRKTywEvcTNQFfVtIS_-146" value="Service[]" style="swimlane;fontStyle=0;childLayout=stackLayout;horizontal=1;startSize=30;horizontalStack=0;resizeParent=1;resizeParentMax=0;resizeLast=0;collapsible=1;marginBottom=0;whiteSpace=wrap;html=1;fillColor=#60a917;fontColor=#ffffff;strokeColor=#2D7600;" vertex="1" parent="1">
          <mxGeometry x="-2727" y="1849.25" width="220" height="120" as="geometry" />
        </mxCell>
        <mxCell id="SsRKTywEvcTNQFfVtIS_-147" value="title: string" style="text;strokeColor=none;fillColor=none;align=left;verticalAlign=middle;spacingLeft=4;spacingRight=4;overflow=hidden;points=[[0,0.5],[1,0.5]];portConstraint=eastwest;rotatable=0;whiteSpace=wrap;html=1;" vertex="1" parent="SsRKTywEvcTNQFfVtIS_-146">
          <mxGeometry y="30" width="220" height="30" as="geometry" />
        </mxCell>
        <mxCell id="SsRKTywEvcTNQFfVtIS_-148" value="description: string" style="text;strokeColor=none;fillColor=none;align=left;verticalAlign=middle;spacingLeft=4;spacingRight=4;overflow=hidden;points=[[0,0.5],[1,0.5]];portConstraint=eastwest;rotatable=0;whiteSpace=wrap;html=1;" vertex="1" parent="SsRKTywEvcTNQFfVtIS_-146">
          <mxGeometry y="60" width="220" height="30" as="geometry" />
        </mxCell>
        <mxCell id="SsRKTywEvcTNQFfVtIS_-150" value="image: image | null" style="text;strokeColor=none;fillColor=none;align=left;verticalAlign=middle;spacingLeft=4;spacingRight=4;overflow=hidden;points=[[0,0.5],[1,0.5]];portConstraint=eastwest;rotatable=0;whiteSpace=wrap;html=1;" vertex="1" parent="SsRKTywEvcTNQFfVtIS_-146">
          <mxGeometry y="90" width="220" height="30" as="geometry" />
        </mxCell>
        <mxCell id="SsRKTywEvcTNQFfVtIS_-151" style="edgeStyle=orthogonalEdgeStyle;rounded=0;orthogonalLoop=1;jettySize=auto;html=1;" edge="1" parent="1" source="SsRKTywEvcTNQFfVtIS_-128" target="SsRKTywEvcTNQFfVtIS_-146">
          <mxGeometry relative="1" as="geometry">
            <Array as="points">
              <mxPoint x="-2462" y="1760" />
              <mxPoint x="-2617" y="1760" />
            </Array>
          </mxGeometry>
        </mxCell>
        <mxCell id="SsRKTywEvcTNQFfVtIS_-152" style="edgeStyle=orthogonalEdgeStyle;rounded=0;orthogonalLoop=1;jettySize=auto;html=1;entryX=0.5;entryY=0;entryDx=0;entryDy=0;" edge="1" parent="1" source="SsRKTywEvcTNQFfVtIS_-127" target="SsRKTywEvcTNQFfVtIS_-142">
          <mxGeometry relative="1" as="geometry">
            <Array as="points">
              <mxPoint x="-2282" y="1770" />
              <mxPoint x="-2207" y="1770" />
            </Array>
          </mxGeometry>
        </mxCell>
        <mxCell id="SsRKTywEvcTNQFfVtIS_-153" value="getServices" style="text;html=1;align=left;verticalAlign=middle;whiteSpace=wrap;rounded=0;fontStyle=1;fontSize=33;" vertex="1" parent="1">
          <mxGeometry x="-4030" y="1230" width="220" height="30" as="geometry" />
        </mxCell>
        <mxCell id="SsRKTywEvcTNQFfVtIS_-154" style="edgeStyle=orthogonalEdgeStyle;rounded=0;orthogonalLoop=1;jettySize=auto;html=1;entryX=0;entryY=0.5;entryDx=0;entryDy=0;" edge="1" parent="1" source="SsRKTywEvcTNQFfVtIS_-109" target="SsRKTywEvcTNQFfVtIS_-126">
          <mxGeometry relative="1" as="geometry" />
        </mxCell>
        <mxCell id="SsRKTywEvcTNQFfVtIS_-155" value="updateService" style="text;html=1;align=left;verticalAlign=middle;whiteSpace=wrap;rounded=0;fontStyle=1;fontSize=33;" vertex="1" parent="1">
          <mxGeometry x="-4028" y="2100" width="238" height="30" as="geometry" />
        </mxCell>
        <mxCell id="SsRKTywEvcTNQFfVtIS_-156" value="ServiceController" style="swimlane;whiteSpace=wrap;html=1;fillColor=#fff2cc;strokeColor=#d6b656;" vertex="1" parent="1">
          <mxGeometry x="-3268" y="2235" width="510" height="545" as="geometry" />
        </mxCell>
        <mxCell id="SsRKTywEvcTNQFfVtIS_-157" style="edgeStyle=orthogonalEdgeStyle;rounded=0;orthogonalLoop=1;jettySize=auto;html=1;fillColor=#d5e8d4;gradientColor=#97d077;strokeColor=#82b366;" edge="1" parent="SsRKTywEvcTNQFfVtIS_-156" source="SsRKTywEvcTNQFfVtIS_-159" target="SsRKTywEvcTNQFfVtIS_-162">
          <mxGeometry relative="1" as="geometry" />
        </mxCell>
        <mxCell id="SsRKTywEvcTNQFfVtIS_-158" value="OK" style="edgeLabel;html=1;align=center;verticalAlign=middle;resizable=0;points=[];fontColor=#00CC00;fontStyle=1" vertex="1" connectable="0" parent="SsRKTywEvcTNQFfVtIS_-157">
          <mxGeometry x="-0.1887" relative="1" as="geometry">
            <mxPoint as="offset" />
          </mxGeometry>
        </mxCell>
        <mxCell id="SsRKTywEvcTNQFfVtIS_-159" value="Check Auth&lt;br&gt;- role admin" style="rounded=0;whiteSpace=wrap;html=1;fillColor=#fff2cc;strokeColor=#d6b656;" vertex="1" parent="SsRKTywEvcTNQFfVtIS_-156">
          <mxGeometry x="195" y="44" width="120" height="60" as="geometry" />
        </mxCell>
        <mxCell id="SsRKTywEvcTNQFfVtIS_-160" style="edgeStyle=orthogonalEdgeStyle;rounded=0;orthogonalLoop=1;jettySize=auto;html=1;fillColor=#d5e8d4;gradientColor=#97d077;strokeColor=#82b366;" edge="1" parent="SsRKTywEvcTNQFfVtIS_-156" source="SsRKTywEvcTNQFfVtIS_-162" target="SsRKTywEvcTNQFfVtIS_-165">
          <mxGeometry relative="1" as="geometry" />
        </mxCell>
        <mxCell id="SsRKTywEvcTNQFfVtIS_-161" value="OK" style="edgeLabel;html=1;align=center;verticalAlign=middle;resizable=0;points=[];fontColor=#00CC00;fontStyle=1" vertex="1" connectable="0" parent="SsRKTywEvcTNQFfVtIS_-160">
          <mxGeometry x="-0.1486" y="2" relative="1" as="geometry">
            <mxPoint as="offset" />
          </mxGeometry>
        </mxCell>
        <mxCell id="SsRKTywEvcTNQFfVtIS_-162" value="UpdateServiceDto" style="rounded=0;whiteSpace=wrap;html=1;fillColor=#ffe6cc;strokeColor=#d79b00;" vertex="1" parent="SsRKTywEvcTNQFfVtIS_-156">
          <mxGeometry x="182" y="175" width="145" height="60" as="geometry" />
        </mxCell>
        <mxCell id="SsRKTywEvcTNQFfVtIS_-163" style="edgeStyle=orthogonalEdgeStyle;rounded=0;orthogonalLoop=1;jettySize=auto;html=1;entryX=0.5;entryY=0;entryDx=0;entryDy=0;fillColor=#d5e8d4;gradientColor=#97d077;strokeColor=#82b366;" edge="1" parent="SsRKTywEvcTNQFfVtIS_-156" source="SsRKTywEvcTNQFfVtIS_-165" target="SsRKTywEvcTNQFfVtIS_-166">
          <mxGeometry relative="1" as="geometry" />
        </mxCell>
        <mxCell id="SsRKTywEvcTNQFfVtIS_-164" value="OK" style="edgeLabel;html=1;align=center;verticalAlign=middle;resizable=0;points=[];fontColor=#00CC00;fontStyle=1" vertex="1" connectable="0" parent="SsRKTywEvcTNQFfVtIS_-163">
          <mxGeometry x="-0.1371" relative="1" as="geometry">
            <mxPoint as="offset" />
          </mxGeometry>
        </mxCell>
        <mxCell id="SsRKTywEvcTNQFfVtIS_-165" value="Interceptor(&#39;image&#39;)&lt;br&gt;- file?" style="rounded=0;whiteSpace=wrap;html=1;fillColor=#fff2cc;strokeColor=#d6b656;fontColor=#0000FF;" vertex="1" parent="SsRKTywEvcTNQFfVtIS_-156">
          <mxGeometry x="195" y="305" width="120" height="60" as="geometry" />
        </mxCell>
        <mxCell id="SsRKTywEvcTNQFfVtIS_-166" value="updateService(id, updateServiceDto, file?)" style="rounded=0;whiteSpace=wrap;html=1;fillColor=#fff2cc;strokeColor=#d6b656;" vertex="1" parent="SsRKTywEvcTNQFfVtIS_-156">
          <mxGeometry x="137" y="435" width="257" height="60" as="geometry" />
        </mxCell>
        <mxCell id="SsRKTywEvcTNQFfVtIS_-167" value="requete update d&#39;un service" style="shape=singleArrow;whiteSpace=wrap;html=1;fillColor=#d5e8d4;strokeColor=#82b366;" vertex="1" parent="1">
          <mxGeometry x="-3528" y="2230" width="260" height="125" as="geometry" />
        </mxCell>
        <mxCell id="SsRKTywEvcTNQFfVtIS_-168" style="edgeStyle=orthogonalEdgeStyle;rounded=0;orthogonalLoop=1;jettySize=auto;html=1;fillColor=#f8cecc;gradientColor=#ea6b66;strokeColor=#b85450;" edge="1" parent="1" source="SsRKTywEvcTNQFfVtIS_-175">
          <mxGeometry relative="1" as="geometry">
            <mxPoint x="-3968" y="2780" as="targetPoint" />
          </mxGeometry>
        </mxCell>
        <mxCell id="SsRKTywEvcTNQFfVtIS_-169" value="error 401" style="edgeLabel;html=1;align=center;verticalAlign=middle;resizable=0;points=[];fontColor=#FF0000;" vertex="1" connectable="0" parent="SsRKTywEvcTNQFfVtIS_-168">
          <mxGeometry x="-0.6242" y="-3" relative="1" as="geometry">
            <mxPoint as="offset" />
          </mxGeometry>
        </mxCell>
        <mxCell id="SsRKTywEvcTNQFfVtIS_-170" value="error 500" style="edgeLabel;html=1;align=center;verticalAlign=middle;resizable=0;points=[];fontColor=#FF0000;" vertex="1" connectable="0" parent="1">
          <mxGeometry x="-3919" y="2956" as="geometry" />
        </mxCell>
        <mxCell id="SsRKTywEvcTNQFfVtIS_-171" style="edgeStyle=orthogonalEdgeStyle;rounded=0;orthogonalLoop=1;jettySize=auto;html=1;fillColor=#f8cecc;gradientColor=#ea6b66;strokeColor=#b85450;" edge="1" parent="1" source="SsRKTywEvcTNQFfVtIS_-175">
          <mxGeometry relative="1" as="geometry">
            <mxPoint x="-3868" y="2780" as="targetPoint" />
            <Array as="points">
              <mxPoint x="-3868" y="2930" />
            </Array>
          </mxGeometry>
        </mxCell>
        <mxCell id="SsRKTywEvcTNQFfVtIS_-172" value="error 400" style="edgeLabel;html=1;align=center;verticalAlign=middle;resizable=0;points=[];fontColor=#FF0000;" vertex="1" connectable="0" parent="SsRKTywEvcTNQFfVtIS_-171">
          <mxGeometry x="-0.6119" y="-2" relative="1" as="geometry">
            <mxPoint as="offset" />
          </mxGeometry>
        </mxCell>
        <mxCell id="SsRKTywEvcTNQFfVtIS_-173" style="edgeStyle=orthogonalEdgeStyle;rounded=0;orthogonalLoop=1;jettySize=auto;html=1;fillColor=#f8cecc;gradientColor=#ea6b66;strokeColor=#b85450;" edge="1" parent="1" source="SsRKTywEvcTNQFfVtIS_-175">
          <mxGeometry relative="1" as="geometry">
            <mxPoint x="-4018" y="2780" as="targetPoint" />
            <Array as="points">
              <mxPoint x="-4018" y="3020" />
            </Array>
          </mxGeometry>
        </mxCell>
        <mxCell id="SsRKTywEvcTNQFfVtIS_-174" value="error 404" style="edgeLabel;html=1;align=center;verticalAlign=middle;resizable=0;points=[];fontColor=#FF0000;" vertex="1" connectable="0" parent="SsRKTywEvcTNQFfVtIS_-173">
          <mxGeometry x="-0.5374" y="1" relative="1" as="geometry">
            <mxPoint as="offset" />
          </mxGeometry>
        </mxCell>
        <mxCell id="SsRKTywEvcTNQFfVtIS_-175" value="Throw error" style="swimlane;whiteSpace=wrap;html=1;fillColor=#fad9d5;strokeColor=#ae4132;" vertex="1" parent="1">
          <mxGeometry x="-3548" y="2888.5" width="300" height="200" as="geometry" />
        </mxCell>
        <mxCell id="SsRKTywEvcTNQFfVtIS_-176" value="HttpExceptionResponse" style="swimlane;fontStyle=0;childLayout=stackLayout;horizontal=1;startSize=30;horizontalStack=0;resizeParent=1;resizeParentMax=0;resizeLast=0;collapsible=1;marginBottom=0;whiteSpace=wrap;html=1;fillColor=#fad9d5;strokeColor=#ae4132;" vertex="1" parent="SsRKTywEvcTNQFfVtIS_-175">
          <mxGeometry x="60" y="53.5" width="187" height="120" as="geometry" />
        </mxCell>
        <mxCell id="SsRKTywEvcTNQFfVtIS_-177" value="statusCode: string" style="text;strokeColor=none;fillColor=none;align=left;verticalAlign=middle;spacingLeft=4;spacingRight=4;overflow=hidden;points=[[0,0.5],[1,0.5]];portConstraint=eastwest;rotatable=0;whiteSpace=wrap;html=1;" vertex="1" parent="SsRKTywEvcTNQFfVtIS_-176">
          <mxGeometry y="30" width="187" height="30" as="geometry" />
        </mxCell>
        <mxCell id="SsRKTywEvcTNQFfVtIS_-178" value="error: string" style="text;strokeColor=none;fillColor=none;align=left;verticalAlign=middle;spacingLeft=4;spacingRight=4;overflow=hidden;points=[[0,0.5],[1,0.5]];portConstraint=eastwest;rotatable=0;whiteSpace=wrap;html=1;" vertex="1" parent="SsRKTywEvcTNQFfVtIS_-176">
          <mxGeometry y="60" width="187" height="30" as="geometry" />
        </mxCell>
        <mxCell id="SsRKTywEvcTNQFfVtIS_-179" value="message: string | string[]" style="text;strokeColor=none;fillColor=none;align=left;verticalAlign=middle;spacingLeft=4;spacingRight=4;overflow=hidden;points=[[0,0.5],[1,0.5]];portConstraint=eastwest;rotatable=0;whiteSpace=wrap;html=1;" vertex="1" parent="SsRKTywEvcTNQFfVtIS_-176">
          <mxGeometry y="90" width="187" height="30" as="geometry" />
        </mxCell>
        <mxCell id="SsRKTywEvcTNQFfVtIS_-180" style="edgeStyle=orthogonalEdgeStyle;rounded=0;orthogonalLoop=1;jettySize=auto;html=1;entryX=1;entryY=0.25;entryDx=0;entryDy=0;fillColor=#d80073;strokeColor=#A50040;" edge="1" parent="1" source="SsRKTywEvcTNQFfVtIS_-159" target="SsRKTywEvcTNQFfVtIS_-175">
          <mxGeometry relative="1" as="geometry">
            <Array as="points">
              <mxPoint x="-3198" y="2309" />
              <mxPoint x="-3198" y="2939" />
            </Array>
          </mxGeometry>
        </mxCell>
        <mxCell id="SsRKTywEvcTNQFfVtIS_-181" value="error 401" style="edgeLabel;html=1;align=center;verticalAlign=middle;resizable=0;points=[];fontColor=#FF0000;" vertex="1" connectable="0" parent="SsRKTywEvcTNQFfVtIS_-180">
          <mxGeometry x="-0.8811" y="1" relative="1" as="geometry">
            <mxPoint as="offset" />
          </mxGeometry>
        </mxCell>
        <mxCell id="SsRKTywEvcTNQFfVtIS_-182" style="edgeStyle=orthogonalEdgeStyle;rounded=0;orthogonalLoop=1;jettySize=auto;html=1;entryX=1;entryY=0.5;entryDx=0;entryDy=0;fillColor=#d80073;strokeColor=#A50040;" edge="1" parent="1" source="SsRKTywEvcTNQFfVtIS_-162" target="SsRKTywEvcTNQFfVtIS_-175">
          <mxGeometry relative="1" as="geometry" />
        </mxCell>
        <mxCell id="SsRKTywEvcTNQFfVtIS_-183" value="error 400" style="edgeLabel;html=1;align=center;verticalAlign=middle;resizable=0;points=[];fontColor=#FF0000;" vertex="1" connectable="0" parent="SsRKTywEvcTNQFfVtIS_-182">
          <mxGeometry x="-0.8677" relative="1" as="geometry">
            <mxPoint as="offset" />
          </mxGeometry>
        </mxCell>
        <mxCell id="SsRKTywEvcTNQFfVtIS_-184" style="edgeStyle=orthogonalEdgeStyle;rounded=0;orthogonalLoop=1;jettySize=auto;html=1;entryX=1;entryY=0.75;entryDx=0;entryDy=0;fillColor=#f8cecc;gradientColor=#ea6b66;strokeColor=#b85450;" edge="1" parent="1" source="SsRKTywEvcTNQFfVtIS_-165" target="SsRKTywEvcTNQFfVtIS_-175">
          <mxGeometry relative="1" as="geometry">
            <Array as="points">
              <mxPoint x="-3138" y="2570" />
              <mxPoint x="-3138" y="3039" />
            </Array>
          </mxGeometry>
        </mxCell>
        <mxCell id="SsRKTywEvcTNQFfVtIS_-185" value="error 400" style="edgeLabel;html=1;align=center;verticalAlign=middle;resizable=0;points=[];fontColor=#FF0000;" vertex="1" connectable="0" parent="SsRKTywEvcTNQFfVtIS_-184">
          <mxGeometry x="-0.8472" y="-1" relative="1" as="geometry">
            <mxPoint x="16" as="offset" />
          </mxGeometry>
        </mxCell>
        <mxCell id="SsRKTywEvcTNQFfVtIS_-186" value="&amp;lt;" style="swimlane;whiteSpace=wrap;html=1;fillColor=#e1d5e7;strokeColor=#9673a6;" vertex="1" parent="1">
          <mxGeometry x="-2698" y="2235" width="710" height="545" as="geometry" />
        </mxCell>
        <mxCell id="SsRKTywEvcTNQFfVtIS_-187" style="edgeStyle=orthogonalEdgeStyle;rounded=0;orthogonalLoop=1;jettySize=auto;html=1;" edge="1" parent="SsRKTywEvcTNQFfVtIS_-186" source="SsRKTywEvcTNQFfVtIS_-188" target="SsRKTywEvcTNQFfVtIS_-194">
          <mxGeometry relative="1" as="geometry" />
        </mxCell>
        <mxCell id="SsRKTywEvcTNQFfVtIS_-188" value="updateService(id, updateServiceDto, file?)" style="rounded=0;whiteSpace=wrap;html=1;fillColor=#e1d5e7;strokeColor=#9673a6;" vertex="1" parent="SsRKTywEvcTNQFfVtIS_-186">
          <mxGeometry x="95" y="55" width="240" height="60" as="geometry" />
        </mxCell>
        <mxCell id="SsRKTywEvcTNQFfVtIS_-189" value="" style="edgeStyle=orthogonalEdgeStyle;rounded=0;orthogonalLoop=1;jettySize=auto;html=1;" edge="1" parent="SsRKTywEvcTNQFfVtIS_-186" source="SsRKTywEvcTNQFfVtIS_-190">
          <mxGeometry relative="1" as="geometry">
            <mxPoint x="214.96969696969745" y="315" as="targetPoint" />
          </mxGeometry>
        </mxCell>
        <mxCell id="SsRKTywEvcTNQFfVtIS_-249" style="edgeStyle=orthogonalEdgeStyle;rounded=0;orthogonalLoop=1;jettySize=auto;html=1;" edge="1" parent="SsRKTywEvcTNQFfVtIS_-186" source="SsRKTywEvcTNQFfVtIS_-190" target="SsRKTywEvcTNQFfVtIS_-196">
          <mxGeometry relative="1" as="geometry" />
        </mxCell>
        <mxCell id="SsRKTywEvcTNQFfVtIS_-190" value="update service" style="whiteSpace=wrap;html=1;fillColor=#e1d5e7;strokeColor=#9673a6;rounded=0;" vertex="1" parent="SsRKTywEvcTNQFfVtIS_-186">
          <mxGeometry x="100" y="315" width="230" height="60" as="geometry" />
        </mxCell>
        <mxCell id="SsRKTywEvcTNQFfVtIS_-193" style="edgeStyle=orthogonalEdgeStyle;rounded=0;orthogonalLoop=1;jettySize=auto;html=1;" edge="1" parent="SsRKTywEvcTNQFfVtIS_-186" source="SsRKTywEvcTNQFfVtIS_-194" target="SsRKTywEvcTNQFfVtIS_-190">
          <mxGeometry relative="1" as="geometry" />
        </mxCell>
        <mxCell id="SsRKTywEvcTNQFfVtIS_-248" value="sinon" style="edgeLabel;html=1;align=center;verticalAlign=middle;resizable=0;points=[];" vertex="1" connectable="0" parent="SsRKTywEvcTNQFfVtIS_-193">
          <mxGeometry x="-0.72" y="-1" relative="1" as="geometry">
            <mxPoint y="7" as="offset" />
          </mxGeometry>
        </mxCell>
        <mxCell id="SsRKTywEvcTNQFfVtIS_-245" style="edgeStyle=orthogonalEdgeStyle;rounded=0;orthogonalLoop=1;jettySize=auto;html=1;" edge="1" parent="SsRKTywEvcTNQFfVtIS_-186" source="SsRKTywEvcTNQFfVtIS_-194" target="SsRKTywEvcTNQFfVtIS_-234">
          <mxGeometry relative="1" as="geometry" />
        </mxCell>
        <mxCell id="SsRKTywEvcTNQFfVtIS_-247" value="si oui" style="edgeLabel;html=1;align=center;verticalAlign=middle;resizable=0;points=[];" vertex="1" connectable="0" parent="SsRKTywEvcTNQFfVtIS_-245">
          <mxGeometry x="-0.3155" y="1" relative="1" as="geometry">
            <mxPoint as="offset" />
          </mxGeometry>
        </mxCell>
        <mxCell id="SsRKTywEvcTNQFfVtIS_-194" value="check si il y a un file" style="whiteSpace=wrap;html=1;fillColor=#e1d5e7;strokeColor=#9673a6;rounded=0;" vertex="1" parent="SsRKTywEvcTNQFfVtIS_-186">
          <mxGeometry x="100" y="139" width="230" height="60" as="geometry" />
        </mxCell>
        <mxCell id="SsRKTywEvcTNQFfVtIS_-195" value="&lt;div&gt;delete image&lt;/div&gt;creer image&lt;div&gt;delete dans S3&lt;br&gt;save dans S3&lt;/div&gt;" style="whiteSpace=wrap;html=1;fillColor=#e1d5e7;strokeColor=#9673a6;rounded=0;" vertex="1" parent="SsRKTywEvcTNQFfVtIS_-186">
          <mxGeometry x="548" y="115" width="120" height="89" as="geometry" />
        </mxCell>
        <mxCell id="SsRKTywEvcTNQFfVtIS_-196" value="retourne le service" style="whiteSpace=wrap;html=1;fillColor=#e1d5e7;strokeColor=#9673a6;rounded=0;" vertex="1" parent="SsRKTywEvcTNQFfVtIS_-186">
          <mxGeometry x="155" y="455" width="120" height="60" as="geometry" />
        </mxCell>
        <mxCell id="SsRKTywEvcTNQFfVtIS_-241" style="edgeStyle=orthogonalEdgeStyle;rounded=0;orthogonalLoop=1;jettySize=auto;html=1;fillColor=#f8cecc;strokeColor=#b85450;" edge="1" parent="SsRKTywEvcTNQFfVtIS_-186" source="SsRKTywEvcTNQFfVtIS_-234">
          <mxGeometry relative="1" as="geometry">
            <mxPoint x="-552" y="835" as="targetPoint" />
            <Array as="points">
              <mxPoint x="418" y="835" />
            </Array>
          </mxGeometry>
        </mxCell>
        <mxCell id="SsRKTywEvcTNQFfVtIS_-242" value="&lt;font color=&quot;#ff0800&quot;&gt;error 404&lt;/font&gt;" style="edgeLabel;html=1;align=center;verticalAlign=middle;resizable=0;points=[];" vertex="1" connectable="0" parent="SsRKTywEvcTNQFfVtIS_-241">
          <mxGeometry x="-0.977" y="1" relative="1" as="geometry">
            <mxPoint as="offset" />
          </mxGeometry>
        </mxCell>
        <mxCell id="SsRKTywEvcTNQFfVtIS_-244" style="edgeStyle=orthogonalEdgeStyle;rounded=0;orthogonalLoop=1;jettySize=auto;html=1;entryX=0;entryY=0.5;entryDx=0;entryDy=0;" edge="1" parent="SsRKTywEvcTNQFfVtIS_-186" source="SsRKTywEvcTNQFfVtIS_-234" target="SsRKTywEvcTNQFfVtIS_-195">
          <mxGeometry relative="1" as="geometry" />
        </mxCell>
        <mxCell id="SsRKTywEvcTNQFfVtIS_-234" value="récupération du service" style="whiteSpace=wrap;html=1;fillColor=#e1d5e7;strokeColor=#9673a6;rounded=0;" vertex="1" parent="SsRKTywEvcTNQFfVtIS_-186">
          <mxGeometry x="398" y="139" width="120" height="60" as="geometry" />
        </mxCell>
        <mxCell id="SsRKTywEvcTNQFfVtIS_-199" style="edgeStyle=orthogonalEdgeStyle;rounded=0;orthogonalLoop=1;jettySize=auto;html=1;entryX=0;entryY=0.5;entryDx=0;entryDy=0;" edge="1" parent="1" source="SsRKTywEvcTNQFfVtIS_-166" target="SsRKTywEvcTNQFfVtIS_-188">
          <mxGeometry relative="1" as="geometry">
            <Array as="points">
              <mxPoint x="-2728" y="2700" />
              <mxPoint x="-2728" y="2320" />
            </Array>
          </mxGeometry>
        </mxCell>
        <mxCell id="SsRKTywEvcTNQFfVtIS_-200" value="ServiceRepository" style="swimlane;whiteSpace=wrap;html=1;fillColor=#d5e8d4;strokeColor=#82b366;" vertex="1" parent="1">
          <mxGeometry x="-1900" y="2535" width="480" height="255" as="geometry" />
        </mxCell>
        <mxCell id="SsRKTywEvcTNQFfVtIS_-201" value="update(updateServiceDto)" style="rounded=0;whiteSpace=wrap;html=1;fillColor=#d5e8d4;strokeColor=#82b366;" vertex="1" parent="SsRKTywEvcTNQFfVtIS_-200">
          <mxGeometry x="50" y="145" width="240" height="60" as="geometry" />
        </mxCell>
        <mxCell id="SsRKTywEvcTNQFfVtIS_-233" value="find()" style="rounded=0;whiteSpace=wrap;html=1;fillColor=#d5e8d4;strokeColor=#82b366;" vertex="1" parent="SsRKTywEvcTNQFfVtIS_-200">
          <mxGeometry x="50" y="45" width="120" height="60" as="geometry" />
        </mxCell>
        <mxCell id="SsRKTywEvcTNQFfVtIS_-203" style="edgeStyle=orthogonalEdgeStyle;rounded=0;orthogonalLoop=1;jettySize=auto;html=1;entryX=0;entryY=0.5;entryDx=0;entryDy=0;" edge="1" parent="1" source="SsRKTywEvcTNQFfVtIS_-190" target="SsRKTywEvcTNQFfVtIS_-201">
          <mxGeometry relative="1" as="geometry">
            <Array as="points">
              <mxPoint x="-2144" y="2580" />
              <mxPoint x="-2144" y="2680" />
              <mxPoint x="-1900" y="2680" />
              <mxPoint x="-1900" y="2710" />
            </Array>
          </mxGeometry>
        </mxCell>
        <mxCell id="SsRKTywEvcTNQFfVtIS_-204" value="ImageRepository" style="swimlane;whiteSpace=wrap;html=1;fillColor=#d5e8d4;strokeColor=#82b366;" vertex="1" parent="1">
          <mxGeometry x="-1909" y="2230" width="480" height="255" as="geometry" />
        </mxCell>
        <mxCell id="SsRKTywEvcTNQFfVtIS_-205" value="create(image)" style="rounded=0;whiteSpace=wrap;html=1;fillColor=#d5e8d4;strokeColor=#82b366;" vertex="1" parent="SsRKTywEvcTNQFfVtIS_-204">
          <mxGeometry x="29" y="108" width="240" height="60" as="geometry" />
        </mxCell>
        <mxCell id="SsRKTywEvcTNQFfVtIS_-206" value="save(image)" style="rounded=0;whiteSpace=wrap;html=1;fillColor=#d5e8d4;strokeColor=#82b366;" vertex="1" parent="SsRKTywEvcTNQFfVtIS_-204">
          <mxGeometry x="70" y="185" width="120" height="60" as="geometry" />
        </mxCell>
        <mxCell id="SsRKTywEvcTNQFfVtIS_-231" value="delete(image)" style="rounded=0;whiteSpace=wrap;html=1;fillColor=#d5e8d4;strokeColor=#82b366;" vertex="1" parent="SsRKTywEvcTNQFfVtIS_-204">
          <mxGeometry x="29" y="40" width="240" height="60" as="geometry" />
        </mxCell>
        <mxCell id="SsRKTywEvcTNQFfVtIS_-207" style="edgeStyle=orthogonalEdgeStyle;rounded=0;orthogonalLoop=1;jettySize=auto;html=1;entryX=0;entryY=0.5;entryDx=0;entryDy=0;" edge="1" parent="1" source="SsRKTywEvcTNQFfVtIS_-195" target="SsRKTywEvcTNQFfVtIS_-205">
          <mxGeometry relative="1" as="geometry">
            <Array as="points">
              <mxPoint x="-2014" y="2390" />
              <mxPoint x="-2014" y="2368" />
            </Array>
          </mxGeometry>
        </mxCell>
        <mxCell id="SsRKTywEvcTNQFfVtIS_-208" value="AwsS3Service" style="swimlane;whiteSpace=wrap;html=1;fillColor=#ffcd28;gradientColor=#ffa500;strokeColor=#d79b00;" vertex="1" parent="1">
          <mxGeometry x="-2190" y="2847" width="200" height="200" as="geometry" />
        </mxCell>
        <mxCell id="SsRKTywEvcTNQFfVtIS_-209" style="edgeStyle=orthogonalEdgeStyle;rounded=0;orthogonalLoop=1;jettySize=auto;html=1;" edge="1" parent="1" source="SsRKTywEvcTNQFfVtIS_-195" target="SsRKTywEvcTNQFfVtIS_-208">
          <mxGeometry relative="1" as="geometry">
            <Array as="points">
              <mxPoint x="-2058" y="2735" />
            </Array>
          </mxGeometry>
        </mxCell>
        <mxCell id="SsRKTywEvcTNQFfVtIS_-210" value="Project" style="swimlane;fontStyle=0;childLayout=stackLayout;horizontal=1;startSize=30;horizontalStack=0;resizeParent=1;resizeParentMax=0;resizeLast=0;collapsible=1;marginBottom=0;whiteSpace=wrap;html=1;fillColor=#60a917;fontColor=#ffffff;strokeColor=#2D7600;" vertex="1" parent="1">
          <mxGeometry x="-2621" y="2853" width="220" height="120" as="geometry" />
        </mxCell>
        <mxCell id="SsRKTywEvcTNQFfVtIS_-211" value="title: string" style="text;strokeColor=none;fillColor=none;align=left;verticalAlign=middle;spacingLeft=4;spacingRight=4;overflow=hidden;points=[[0,0.5],[1,0.5]];portConstraint=eastwest;rotatable=0;whiteSpace=wrap;html=1;" vertex="1" parent="SsRKTywEvcTNQFfVtIS_-210">
          <mxGeometry y="30" width="220" height="30" as="geometry" />
        </mxCell>
        <mxCell id="SsRKTywEvcTNQFfVtIS_-212" value="description: string" style="text;strokeColor=none;fillColor=none;align=left;verticalAlign=middle;spacingLeft=4;spacingRight=4;overflow=hidden;points=[[0,0.5],[1,0.5]];portConstraint=eastwest;rotatable=0;whiteSpace=wrap;html=1;" vertex="1" parent="SsRKTywEvcTNQFfVtIS_-210">
          <mxGeometry y="60" width="220" height="30" as="geometry" />
        </mxCell>
        <mxCell id="SsRKTywEvcTNQFfVtIS_-213" value="Image: Image | null" style="text;strokeColor=none;fillColor=none;align=left;verticalAlign=middle;spacingLeft=4;spacingRight=4;overflow=hidden;points=[[0,0.5],[1,0.5]];portConstraint=eastwest;rotatable=0;whiteSpace=wrap;html=1;" vertex="1" parent="SsRKTywEvcTNQFfVtIS_-210">
          <mxGeometry y="90" width="220" height="30" as="geometry" />
        </mxCell>
        <mxCell id="SsRKTywEvcTNQFfVtIS_-214" style="edgeStyle=orthogonalEdgeStyle;rounded=0;orthogonalLoop=1;jettySize=auto;html=1;entryX=0.625;entryY=-0.034;entryDx=0;entryDy=0;entryPerimeter=0;fillColor=#60a917;strokeColor=#2D7600;" edge="1" parent="1" source="SsRKTywEvcTNQFfVtIS_-196" target="SsRKTywEvcTNQFfVtIS_-210">
          <mxGeometry relative="1" as="geometry" />
        </mxCell>
        <mxCell id="SsRKTywEvcTNQFfVtIS_-215" style="edgeStyle=orthogonalEdgeStyle;rounded=0;orthogonalLoop=1;jettySize=auto;html=1;fillColor=#d5e8d4;gradientColor=#97d077;strokeColor=#82b366;exitX=0.504;exitY=1.111;exitDx=0;exitDy=0;exitPerimeter=0;" edge="1" parent="1" source="SsRKTywEvcTNQFfVtIS_-213">
          <mxGeometry relative="1" as="geometry">
            <mxPoint x="-4039" y="2780" as="targetPoint" />
            <Array as="points">
              <mxPoint x="-2510" y="3120" />
              <mxPoint x="-4039" y="3120" />
            </Array>
            <mxPoint x="-2509" y="3010" as="sourcePoint" />
          </mxGeometry>
        </mxCell>
        <mxCell id="SsRKTywEvcTNQFfVtIS_-216" value="Rerour 201" style="edgeLabel;html=1;align=center;verticalAlign=middle;resizable=0;points=[];fontColor=#00CC00;" vertex="1" connectable="0" parent="SsRKTywEvcTNQFfVtIS_-215">
          <mxGeometry x="0.1333" relative="1" as="geometry">
            <mxPoint y="1" as="offset" />
          </mxGeometry>
        </mxCell>
        <mxCell id="SsRKTywEvcTNQFfVtIS_-217" value="Frontend" style="swimlane;whiteSpace=wrap;html=1;fillColor=#dae8fc;strokeColor=#6c8ebf;" vertex="1" parent="1">
          <mxGeometry x="-4038" y="2245" width="520" height="545" as="geometry" />
        </mxCell>
        <mxCell id="SsRKTywEvcTNQFfVtIS_-218" value="PUT&lt;span style=&quot;white-space: pre;&quot;&gt;&#x9;&lt;/span&gt;/service/:id" style="rounded=0;whiteSpace=wrap;html=1;fillColor=#dae8fc;strokeColor=#6c8ebf;" vertex="1" parent="SsRKTywEvcTNQFfVtIS_-217">
          <mxGeometry x="30" y="44" width="460" height="60" as="geometry" />
        </mxCell>
        <mxCell id="SsRKTywEvcTNQFfVtIS_-219" style="edgeStyle=orthogonalEdgeStyle;rounded=0;orthogonalLoop=1;jettySize=auto;html=1;" edge="1" parent="SsRKTywEvcTNQFfVtIS_-217" source="SsRKTywEvcTNQFfVtIS_-220" target="SsRKTywEvcTNQFfVtIS_-218">
          <mxGeometry relative="1" as="geometry" />
        </mxCell>
        <mxCell id="SsRKTywEvcTNQFfVtIS_-220" value="Body" style="swimlane;whiteSpace=wrap;html=1;fillColor=#dae8fc;strokeColor=#6c8ebf;" vertex="1" parent="SsRKTywEvcTNQFfVtIS_-217">
          <mxGeometry x="30" y="215" width="200" height="235" as="geometry" />
        </mxCell>
        <mxCell id="SsRKTywEvcTNQFfVtIS_-221" value="CreateServiceDto" style="swimlane;fontStyle=0;childLayout=stackLayout;horizontal=1;startSize=30;horizontalStack=0;resizeParent=1;resizeParentMax=0;resizeLast=0;collapsible=1;marginBottom=0;whiteSpace=wrap;html=1;fillColor=#ffe6cc;strokeColor=#d79b00;" vertex="1" parent="SsRKTywEvcTNQFfVtIS_-220">
          <mxGeometry x="30" y="55" width="140" height="120" as="geometry" />
        </mxCell>
        <mxCell id="SsRKTywEvcTNQFfVtIS_-222" value="title: string | null" style="text;strokeColor=none;fillColor=none;align=left;verticalAlign=middle;spacingLeft=4;spacingRight=4;overflow=hidden;points=[[0,0.5],[1,0.5]];portConstraint=eastwest;rotatable=0;whiteSpace=wrap;html=1;" vertex="1" parent="SsRKTywEvcTNQFfVtIS_-221">
          <mxGeometry y="30" width="140" height="30" as="geometry" />
        </mxCell>
        <mxCell id="SsRKTywEvcTNQFfVtIS_-223" value="description: string | null" style="text;strokeColor=none;fillColor=none;align=left;verticalAlign=middle;spacingLeft=4;spacingRight=4;overflow=hidden;points=[[0,0.5],[1,0.5]];portConstraint=eastwest;rotatable=0;whiteSpace=wrap;html=1;" vertex="1" parent="SsRKTywEvcTNQFfVtIS_-221">
          <mxGeometry y="60" width="140" height="30" as="geometry" />
        </mxCell>
        <mxCell id="SsRKTywEvcTNQFfVtIS_-224" value="image: File | null" style="text;strokeColor=none;fillColor=none;align=left;verticalAlign=middle;spacingLeft=4;spacingRight=4;overflow=hidden;points=[[0,0.5],[1,0.5]];portConstraint=eastwest;rotatable=0;whiteSpace=wrap;html=1;fontColor=#0000FF;" vertex="1" parent="SsRKTywEvcTNQFfVtIS_-221">
          <mxGeometry y="90" width="140" height="30" as="geometry" />
        </mxCell>
        <mxCell id="SsRKTywEvcTNQFfVtIS_-225" value="Header" style="swimlane;whiteSpace=wrap;html=1;fillColor=#dae8fc;strokeColor=#6c8ebf;" vertex="1" parent="SsRKTywEvcTNQFfVtIS_-217">
          <mxGeometry x="270" y="215" width="200" height="95" as="geometry" />
        </mxCell>
        <mxCell id="SsRKTywEvcTNQFfVtIS_-226" value="Authorization: token" style="text;html=1;align=left;verticalAlign=middle;whiteSpace=wrap;rounded=0;" vertex="1" parent="SsRKTywEvcTNQFfVtIS_-225">
          <mxGeometry x="10" y="39" width="170" height="30" as="geometry" />
        </mxCell>
        <mxCell id="SsRKTywEvcTNQFfVtIS_-227" style="edgeStyle=orthogonalEdgeStyle;rounded=0;orthogonalLoop=1;jettySize=auto;html=1;entryX=0.548;entryY=1.019;entryDx=0;entryDy=0;entryPerimeter=0;" edge="1" parent="SsRKTywEvcTNQFfVtIS_-217" source="SsRKTywEvcTNQFfVtIS_-225" target="SsRKTywEvcTNQFfVtIS_-218">
          <mxGeometry relative="1" as="geometry" />
        </mxCell>
        <mxCell id="SsRKTywEvcTNQFfVtIS_-228" style="edgeStyle=orthogonalEdgeStyle;rounded=0;orthogonalLoop=1;jettySize=auto;html=1;entryX=1;entryY=0.25;entryDx=0;entryDy=0;" edge="1" parent="1" source="SsRKTywEvcTNQFfVtIS_-206" target="SsRKTywEvcTNQFfVtIS_-190">
          <mxGeometry relative="1" as="geometry">
            <Array as="points">
              <mxPoint x="-2029" y="2450" />
              <mxPoint x="-2029" y="2565" />
            </Array>
            <mxPoint x="-2368" y="2493" as="targetPoint" />
          </mxGeometry>
        </mxCell>
        <mxCell id="SsRKTywEvcTNQFfVtIS_-229" value="Récupération ID de l&#39;image" style="edgeLabel;html=1;align=center;verticalAlign=middle;resizable=0;points=[];" vertex="1" connectable="0" parent="SsRKTywEvcTNQFfVtIS_-228">
          <mxGeometry x="0.249" y="2" relative="1" as="geometry">
            <mxPoint x="-48" y="-4" as="offset" />
          </mxGeometry>
        </mxCell>
        <mxCell id="SsRKTywEvcTNQFfVtIS_-237" style="edgeStyle=orthogonalEdgeStyle;rounded=0;orthogonalLoop=1;jettySize=auto;html=1;entryX=0;entryY=0.75;entryDx=0;entryDy=0;" edge="1" parent="1" source="SsRKTywEvcTNQFfVtIS_-234" target="SsRKTywEvcTNQFfVtIS_-233">
          <mxGeometry relative="1" as="geometry">
            <Array as="points">
              <mxPoint x="-2240" y="2625" />
            </Array>
          </mxGeometry>
        </mxCell>
        <mxCell id="SsRKTywEvcTNQFfVtIS_-238" style="edgeStyle=orthogonalEdgeStyle;rounded=0;orthogonalLoop=1;jettySize=auto;html=1;" edge="1" parent="1" source="SsRKTywEvcTNQFfVtIS_-233" target="SsRKTywEvcTNQFfVtIS_-195">
          <mxGeometry relative="1" as="geometry">
            <Array as="points">
              <mxPoint x="-2100" y="2610" />
            </Array>
          </mxGeometry>
        </mxCell>
        <mxCell id="SsRKTywEvcTNQFfVtIS_-246" style="edgeStyle=orthogonalEdgeStyle;rounded=0;orthogonalLoop=1;jettySize=auto;html=1;entryX=0;entryY=0.5;entryDx=0;entryDy=0;" edge="1" parent="1" source="SsRKTywEvcTNQFfVtIS_-195" target="SsRKTywEvcTNQFfVtIS_-231">
          <mxGeometry relative="1" as="geometry">
            <Array as="points">
              <mxPoint x="-1965" y="2360" />
              <mxPoint x="-1965" y="2300" />
            </Array>
          </mxGeometry>
        </mxCell>
        <mxCell id="SsRKTywEvcTNQFfVtIS_-250" value="deleteService" style="text;html=1;align=left;verticalAlign=middle;whiteSpace=wrap;rounded=0;fontStyle=1;fontSize=33;" vertex="1" parent="1">
          <mxGeometry x="-4027" y="3190" width="220" height="30" as="geometry" />
        </mxCell>
        <mxCell id="SsRKTywEvcTNQFfVtIS_-251" value="ServiceController" style="swimlane;whiteSpace=wrap;html=1;fillColor=#fff2cc;strokeColor=#d6b656;" vertex="1" parent="1">
          <mxGeometry x="-3267" y="3325" width="510" height="545" as="geometry" />
        </mxCell>
        <mxCell id="SsRKTywEvcTNQFfVtIS_-252" style="edgeStyle=orthogonalEdgeStyle;rounded=0;orthogonalLoop=1;jettySize=auto;html=1;fillColor=#d5e8d4;gradientColor=#97d077;strokeColor=#82b366;" edge="1" parent="SsRKTywEvcTNQFfVtIS_-251" source="SsRKTywEvcTNQFfVtIS_-254" target="SsRKTywEvcTNQFfVtIS_-257">
          <mxGeometry relative="1" as="geometry" />
        </mxCell>
        <mxCell id="SsRKTywEvcTNQFfVtIS_-253" value="OK" style="edgeLabel;html=1;align=center;verticalAlign=middle;resizable=0;points=[];fontColor=#00CC00;fontStyle=1" vertex="1" connectable="0" parent="SsRKTywEvcTNQFfVtIS_-252">
          <mxGeometry x="-0.1887" relative="1" as="geometry">
            <mxPoint as="offset" />
          </mxGeometry>
        </mxCell>
        <mxCell id="SsRKTywEvcTNQFfVtIS_-254" value="Check Auth&lt;br&gt;- role admin" style="rounded=0;whiteSpace=wrap;html=1;fillColor=#fff2cc;strokeColor=#d6b656;" vertex="1" parent="SsRKTywEvcTNQFfVtIS_-251">
          <mxGeometry x="195" y="44" width="120" height="60" as="geometry" />
        </mxCell>
        <mxCell id="SsRKTywEvcTNQFfVtIS_-255" style="edgeStyle=orthogonalEdgeStyle;rounded=0;orthogonalLoop=1;jettySize=auto;html=1;fillColor=#d5e8d4;gradientColor=#97d077;strokeColor=#82b366;" edge="1" parent="SsRKTywEvcTNQFfVtIS_-251" source="SsRKTywEvcTNQFfVtIS_-257" target="SsRKTywEvcTNQFfVtIS_-260">
          <mxGeometry relative="1" as="geometry" />
        </mxCell>
        <mxCell id="SsRKTywEvcTNQFfVtIS_-256" value="OK" style="edgeLabel;html=1;align=center;verticalAlign=middle;resizable=0;points=[];fontColor=#00CC00;fontStyle=1" vertex="1" connectable="0" parent="SsRKTywEvcTNQFfVtIS_-255">
          <mxGeometry x="-0.1486" y="2" relative="1" as="geometry">
            <mxPoint as="offset" />
          </mxGeometry>
        </mxCell>
        <mxCell id="SsRKTywEvcTNQFfVtIS_-257" value="CreateServiceDto" style="rounded=0;whiteSpace=wrap;html=1;fillColor=#ffe6cc;strokeColor=#d79b00;" vertex="1" parent="SsRKTywEvcTNQFfVtIS_-251">
          <mxGeometry x="195" y="175" width="120" height="60" as="geometry" />
        </mxCell>
        <mxCell id="SsRKTywEvcTNQFfVtIS_-258" style="edgeStyle=orthogonalEdgeStyle;rounded=0;orthogonalLoop=1;jettySize=auto;html=1;entryX=0.5;entryY=0;entryDx=0;entryDy=0;fillColor=#d5e8d4;gradientColor=#97d077;strokeColor=#82b366;" edge="1" parent="SsRKTywEvcTNQFfVtIS_-251" source="SsRKTywEvcTNQFfVtIS_-260" target="SsRKTywEvcTNQFfVtIS_-261">
          <mxGeometry relative="1" as="geometry" />
        </mxCell>
        <mxCell id="SsRKTywEvcTNQFfVtIS_-259" value="OK" style="edgeLabel;html=1;align=center;verticalAlign=middle;resizable=0;points=[];fontColor=#00CC00;fontStyle=1" vertex="1" connectable="0" parent="SsRKTywEvcTNQFfVtIS_-258">
          <mxGeometry x="-0.1371" relative="1" as="geometry">
            <mxPoint as="offset" />
          </mxGeometry>
        </mxCell>
        <mxCell id="SsRKTywEvcTNQFfVtIS_-260" value="Interceptor(&#39;image&#39;)&lt;br&gt;- file?" style="rounded=0;whiteSpace=wrap;html=1;fillColor=#fff2cc;strokeColor=#d6b656;fontColor=#0000FF;" vertex="1" parent="SsRKTywEvcTNQFfVtIS_-251">
          <mxGeometry x="195" y="305" width="120" height="60" as="geometry" />
        </mxCell>
        <mxCell id="SsRKTywEvcTNQFfVtIS_-261" value="createService(id)" style="rounded=0;whiteSpace=wrap;html=1;fillColor=#fff2cc;strokeColor=#d6b656;" vertex="1" parent="SsRKTywEvcTNQFfVtIS_-251">
          <mxGeometry x="135" y="435" width="240" height="60" as="geometry" />
        </mxCell>
        <mxCell id="SsRKTywEvcTNQFfVtIS_-262" value="requete suppression d&#39;un service" style="shape=singleArrow;whiteSpace=wrap;html=1;fillColor=#d5e8d4;strokeColor=#82b366;" vertex="1" parent="1">
          <mxGeometry x="-3527" y="3320" width="260" height="125" as="geometry" />
        </mxCell>
        <mxCell id="SsRKTywEvcTNQFfVtIS_-263" style="edgeStyle=orthogonalEdgeStyle;rounded=0;orthogonalLoop=1;jettySize=auto;html=1;fillColor=#f8cecc;gradientColor=#ea6b66;strokeColor=#b85450;" edge="1" parent="1" source="SsRKTywEvcTNQFfVtIS_-270">
          <mxGeometry relative="1" as="geometry">
            <mxPoint x="-3967" y="3870" as="targetPoint" />
          </mxGeometry>
        </mxCell>
        <mxCell id="SsRKTywEvcTNQFfVtIS_-264" value="error 401" style="edgeLabel;html=1;align=center;verticalAlign=middle;resizable=0;points=[];fontColor=#FF0000;" vertex="1" connectable="0" parent="SsRKTywEvcTNQFfVtIS_-263">
          <mxGeometry x="-0.6242" y="-3" relative="1" as="geometry">
            <mxPoint as="offset" />
          </mxGeometry>
        </mxCell>
        <mxCell id="SsRKTywEvcTNQFfVtIS_-265" value="error 500" style="edgeLabel;html=1;align=center;verticalAlign=middle;resizable=0;points=[];fontColor=#FF0000;" vertex="1" connectable="0" parent="1">
          <mxGeometry x="-3918" y="4046" as="geometry" />
        </mxCell>
        <mxCell id="SsRKTywEvcTNQFfVtIS_-266" style="edgeStyle=orthogonalEdgeStyle;rounded=0;orthogonalLoop=1;jettySize=auto;html=1;fillColor=#f8cecc;gradientColor=#ea6b66;strokeColor=#b85450;" edge="1" parent="1" source="SsRKTywEvcTNQFfVtIS_-270">
          <mxGeometry relative="1" as="geometry">
            <mxPoint x="-3867" y="3870" as="targetPoint" />
            <Array as="points">
              <mxPoint x="-3867" y="4020" />
            </Array>
          </mxGeometry>
        </mxCell>
        <mxCell id="SsRKTywEvcTNQFfVtIS_-267" value="error 400" style="edgeLabel;html=1;align=center;verticalAlign=middle;resizable=0;points=[];fontColor=#FF0000;" vertex="1" connectable="0" parent="SsRKTywEvcTNQFfVtIS_-266">
          <mxGeometry x="-0.6119" y="-2" relative="1" as="geometry">
            <mxPoint as="offset" />
          </mxGeometry>
        </mxCell>
        <mxCell id="SsRKTywEvcTNQFfVtIS_-268" style="edgeStyle=orthogonalEdgeStyle;rounded=0;orthogonalLoop=1;jettySize=auto;html=1;fillColor=#f8cecc;gradientColor=#ea6b66;strokeColor=#b85450;" edge="1" parent="1" source="SsRKTywEvcTNQFfVtIS_-270">
          <mxGeometry relative="1" as="geometry">
            <mxPoint x="-4017" y="3870" as="targetPoint" />
            <Array as="points">
              <mxPoint x="-4017" y="4110" />
            </Array>
          </mxGeometry>
        </mxCell>
        <mxCell id="SsRKTywEvcTNQFfVtIS_-269" value="error 404" style="edgeLabel;html=1;align=center;verticalAlign=middle;resizable=0;points=[];fontColor=#FF0000;" vertex="1" connectable="0" parent="SsRKTywEvcTNQFfVtIS_-268">
          <mxGeometry x="-0.5374" y="1" relative="1" as="geometry">
            <mxPoint as="offset" />
          </mxGeometry>
        </mxCell>
        <mxCell id="SsRKTywEvcTNQFfVtIS_-270" value="Throw error" style="swimlane;whiteSpace=wrap;html=1;fillColor=#fad9d5;strokeColor=#ae4132;" vertex="1" parent="1">
          <mxGeometry x="-3547" y="3978.5" width="300" height="200" as="geometry" />
        </mxCell>
        <mxCell id="SsRKTywEvcTNQFfVtIS_-271" value="HttpExceptionResponse" style="swimlane;fontStyle=0;childLayout=stackLayout;horizontal=1;startSize=30;horizontalStack=0;resizeParent=1;resizeParentMax=0;resizeLast=0;collapsible=1;marginBottom=0;whiteSpace=wrap;html=1;fillColor=#fad9d5;strokeColor=#ae4132;" vertex="1" parent="SsRKTywEvcTNQFfVtIS_-270">
          <mxGeometry x="60" y="53.5" width="187" height="120" as="geometry" />
        </mxCell>
        <mxCell id="SsRKTywEvcTNQFfVtIS_-272" value="statusCode: string" style="text;strokeColor=none;fillColor=none;align=left;verticalAlign=middle;spacingLeft=4;spacingRight=4;overflow=hidden;points=[[0,0.5],[1,0.5]];portConstraint=eastwest;rotatable=0;whiteSpace=wrap;html=1;" vertex="1" parent="SsRKTywEvcTNQFfVtIS_-271">
          <mxGeometry y="30" width="187" height="30" as="geometry" />
        </mxCell>
        <mxCell id="SsRKTywEvcTNQFfVtIS_-273" value="error: string" style="text;strokeColor=none;fillColor=none;align=left;verticalAlign=middle;spacingLeft=4;spacingRight=4;overflow=hidden;points=[[0,0.5],[1,0.5]];portConstraint=eastwest;rotatable=0;whiteSpace=wrap;html=1;" vertex="1" parent="SsRKTywEvcTNQFfVtIS_-271">
          <mxGeometry y="60" width="187" height="30" as="geometry" />
        </mxCell>
        <mxCell id="SsRKTywEvcTNQFfVtIS_-274" value="message: string | string[]" style="text;strokeColor=none;fillColor=none;align=left;verticalAlign=middle;spacingLeft=4;spacingRight=4;overflow=hidden;points=[[0,0.5],[1,0.5]];portConstraint=eastwest;rotatable=0;whiteSpace=wrap;html=1;" vertex="1" parent="SsRKTywEvcTNQFfVtIS_-271">
          <mxGeometry y="90" width="187" height="30" as="geometry" />
        </mxCell>
        <mxCell id="SsRKTywEvcTNQFfVtIS_-275" style="edgeStyle=orthogonalEdgeStyle;rounded=0;orthogonalLoop=1;jettySize=auto;html=1;entryX=1;entryY=0.25;entryDx=0;entryDy=0;fillColor=#d80073;strokeColor=#A50040;" edge="1" parent="1" source="SsRKTywEvcTNQFfVtIS_-254" target="SsRKTywEvcTNQFfVtIS_-270">
          <mxGeometry relative="1" as="geometry">
            <Array as="points">
              <mxPoint x="-3197" y="3399" />
              <mxPoint x="-3197" y="4029" />
            </Array>
          </mxGeometry>
        </mxCell>
        <mxCell id="SsRKTywEvcTNQFfVtIS_-276" value="error 401" style="edgeLabel;html=1;align=center;verticalAlign=middle;resizable=0;points=[];fontColor=#FF0000;" vertex="1" connectable="0" parent="SsRKTywEvcTNQFfVtIS_-275">
          <mxGeometry x="-0.8811" y="1" relative="1" as="geometry">
            <mxPoint as="offset" />
          </mxGeometry>
        </mxCell>
        <mxCell id="SsRKTywEvcTNQFfVtIS_-277" style="edgeStyle=orthogonalEdgeStyle;rounded=0;orthogonalLoop=1;jettySize=auto;html=1;entryX=1;entryY=0.5;entryDx=0;entryDy=0;fillColor=#d80073;strokeColor=#A50040;" edge="1" parent="1" source="SsRKTywEvcTNQFfVtIS_-257" target="SsRKTywEvcTNQFfVtIS_-270">
          <mxGeometry relative="1" as="geometry" />
        </mxCell>
        <mxCell id="SsRKTywEvcTNQFfVtIS_-278" value="error 400" style="edgeLabel;html=1;align=center;verticalAlign=middle;resizable=0;points=[];fontColor=#FF0000;" vertex="1" connectable="0" parent="SsRKTywEvcTNQFfVtIS_-277">
          <mxGeometry x="-0.8677" relative="1" as="geometry">
            <mxPoint as="offset" />
          </mxGeometry>
        </mxCell>
        <mxCell id="SsRKTywEvcTNQFfVtIS_-279" style="edgeStyle=orthogonalEdgeStyle;rounded=0;orthogonalLoop=1;jettySize=auto;html=1;entryX=1;entryY=0.75;entryDx=0;entryDy=0;fillColor=#f8cecc;gradientColor=#ea6b66;strokeColor=#b85450;" edge="1" parent="1" source="SsRKTywEvcTNQFfVtIS_-260" target="SsRKTywEvcTNQFfVtIS_-270">
          <mxGeometry relative="1" as="geometry">
            <Array as="points">
              <mxPoint x="-3137" y="3660" />
              <mxPoint x="-3137" y="4129" />
            </Array>
          </mxGeometry>
        </mxCell>
        <mxCell id="SsRKTywEvcTNQFfVtIS_-280" value="error 400" style="edgeLabel;html=1;align=center;verticalAlign=middle;resizable=0;points=[];fontColor=#FF0000;" vertex="1" connectable="0" parent="SsRKTywEvcTNQFfVtIS_-279">
          <mxGeometry x="-0.8472" y="-1" relative="1" as="geometry">
            <mxPoint x="16" as="offset" />
          </mxGeometry>
        </mxCell>
        <mxCell id="SsRKTywEvcTNQFfVtIS_-281" value="ServiceService" style="swimlane;whiteSpace=wrap;html=1;fillColor=#e1d5e7;strokeColor=#9673a6;" vertex="1" parent="1">
          <mxGeometry x="-2697" y="3325" width="710" height="545" as="geometry" />
        </mxCell>
        <mxCell id="SsRKTywEvcTNQFfVtIS_-334" style="edgeStyle=orthogonalEdgeStyle;rounded=0;orthogonalLoop=1;jettySize=auto;html=1;entryX=0.5;entryY=0;entryDx=0;entryDy=0;" edge="1" parent="SsRKTywEvcTNQFfVtIS_-281" source="SsRKTywEvcTNQFfVtIS_-283" target="SsRKTywEvcTNQFfVtIS_-328">
          <mxGeometry relative="1" as="geometry" />
        </mxCell>
        <mxCell id="SsRKTywEvcTNQFfVtIS_-283" value="deleteService(id)" style="rounded=0;whiteSpace=wrap;html=1;fillColor=#e1d5e7;strokeColor=#9673a6;" vertex="1" parent="SsRKTywEvcTNQFfVtIS_-281">
          <mxGeometry x="95" y="55" width="335" height="60" as="geometry" />
        </mxCell>
        <mxCell id="SsRKTywEvcTNQFfVtIS_-337" style="edgeStyle=orthogonalEdgeStyle;rounded=0;orthogonalLoop=1;jettySize=auto;html=1;" edge="1" parent="SsRKTywEvcTNQFfVtIS_-281">
          <mxGeometry relative="1" as="geometry">
            <mxPoint x="411.99999999999955" y="285" as="sourcePoint" />
            <mxPoint x="499" y="285" as="targetPoint" />
          </mxGeometry>
        </mxCell>
        <mxCell id="SsRKTywEvcTNQFfVtIS_-340" value="Si oui" style="edgeLabel;html=1;align=center;verticalAlign=middle;resizable=0;points=[];" vertex="1" connectable="0" parent="SsRKTywEvcTNQFfVtIS_-337">
          <mxGeometry x="-0.0964" y="-3" relative="1" as="geometry">
            <mxPoint y="-4" as="offset" />
          </mxGeometry>
        </mxCell>
        <mxCell id="SsRKTywEvcTNQFfVtIS_-328" value="Vérification présence id Image" style="rounded=0;whiteSpace=wrap;html=1;fillColor=#e1d5e7;strokeColor=#9673a6;" vertex="1" parent="SsRKTywEvcTNQFfVtIS_-281">
          <mxGeometry x="77" y="255" width="335" height="60" as="geometry" />
        </mxCell>
        <mxCell id="SsRKTywEvcTNQFfVtIS_-336" value="delete image&lt;div&gt;delete dans S3&lt;/div&gt;" style="rounded=0;whiteSpace=wrap;html=1;fillColor=#e1d5e7;strokeColor=#9673a6;" vertex="1" parent="SsRKTywEvcTNQFfVtIS_-281">
          <mxGeometry x="499" y="255" width="100" height="60" as="geometry" />
        </mxCell>
        <mxCell id="SsRKTywEvcTNQFfVtIS_-295" style="edgeStyle=orthogonalEdgeStyle;rounded=0;orthogonalLoop=1;jettySize=auto;html=1;entryX=0;entryY=0.5;entryDx=0;entryDy=0;" edge="1" parent="1" source="SsRKTywEvcTNQFfVtIS_-261" target="SsRKTywEvcTNQFfVtIS_-283">
          <mxGeometry relative="1" as="geometry">
            <Array as="points">
              <mxPoint x="-2727" y="3790" />
              <mxPoint x="-2727" y="3410" />
            </Array>
          </mxGeometry>
        </mxCell>
        <mxCell id="SsRKTywEvcTNQFfVtIS_-296" value="ServiceRepository" style="swimlane;whiteSpace=wrap;html=1;fillColor=#d5e8d4;strokeColor=#82b366;" vertex="1" parent="1">
          <mxGeometry x="-1920" y="3325" width="480" height="255" as="geometry" />
        </mxCell>
        <mxCell id="SsRKTywEvcTNQFfVtIS_-297" value="delete(id)" style="rounded=0;whiteSpace=wrap;html=1;fillColor=#d5e8d4;strokeColor=#82b366;" vertex="1" parent="SsRKTywEvcTNQFfVtIS_-296">
          <mxGeometry x="30" y="85" width="240" height="60" as="geometry" />
        </mxCell>
        <mxCell id="SsRKTywEvcTNQFfVtIS_-300" value="ImageRepository" style="swimlane;whiteSpace=wrap;html=1;fillColor=#d5e8d4;strokeColor=#82b366;" vertex="1" parent="1">
          <mxGeometry x="-1920" y="3615" width="480" height="255" as="geometry" />
        </mxCell>
        <mxCell id="SsRKTywEvcTNQFfVtIS_-301" value="delete(id image)" style="rounded=0;whiteSpace=wrap;html=1;fillColor=#d5e8d4;strokeColor=#82b366;" vertex="1" parent="SsRKTywEvcTNQFfVtIS_-300">
          <mxGeometry x="26" y="45" width="240" height="60" as="geometry" />
        </mxCell>
        <mxCell id="SsRKTywEvcTNQFfVtIS_-304" value="AwsS3Service" style="swimlane;whiteSpace=wrap;html=1;fillColor=#ffcd28;gradientColor=#ffa500;strokeColor=#d79b00;" vertex="1" parent="1">
          <mxGeometry x="-2189" y="3937" width="200" height="200" as="geometry" />
        </mxCell>
        <mxCell id="SsRKTywEvcTNQFfVtIS_-306" value="Service" style="swimlane;fontStyle=0;childLayout=stackLayout;horizontal=1;startSize=30;horizontalStack=0;resizeParent=1;resizeParentMax=0;resizeLast=0;collapsible=1;marginBottom=0;whiteSpace=wrap;html=1;fillColor=#60a917;fontColor=#ffffff;strokeColor=#2D7600;" vertex="1" parent="1">
          <mxGeometry x="-2620" y="3943" width="220" height="120" as="geometry" />
        </mxCell>
        <mxCell id="SsRKTywEvcTNQFfVtIS_-307" value="title: string" style="text;strokeColor=none;fillColor=none;align=left;verticalAlign=middle;spacingLeft=4;spacingRight=4;overflow=hidden;points=[[0,0.5],[1,0.5]];portConstraint=eastwest;rotatable=0;whiteSpace=wrap;html=1;" vertex="1" parent="SsRKTywEvcTNQFfVtIS_-306">
          <mxGeometry y="30" width="220" height="30" as="geometry" />
        </mxCell>
        <mxCell id="SsRKTywEvcTNQFfVtIS_-308" value="description: string" style="text;strokeColor=none;fillColor=none;align=left;verticalAlign=middle;spacingLeft=4;spacingRight=4;overflow=hidden;points=[[0,0.5],[1,0.5]];portConstraint=eastwest;rotatable=0;whiteSpace=wrap;html=1;" vertex="1" parent="SsRKTywEvcTNQFfVtIS_-306">
          <mxGeometry y="60" width="220" height="30" as="geometry" />
        </mxCell>
        <mxCell id="SsRKTywEvcTNQFfVtIS_-309" value="Image: Image | null" style="text;strokeColor=none;fillColor=none;align=left;verticalAlign=middle;spacingLeft=4;spacingRight=4;overflow=hidden;points=[[0,0.5],[1,0.5]];portConstraint=eastwest;rotatable=0;whiteSpace=wrap;html=1;" vertex="1" parent="SsRKTywEvcTNQFfVtIS_-306">
          <mxGeometry y="90" width="220" height="30" as="geometry" />
        </mxCell>
        <mxCell id="SsRKTywEvcTNQFfVtIS_-311" style="edgeStyle=orthogonalEdgeStyle;rounded=0;orthogonalLoop=1;jettySize=auto;html=1;fillColor=#d5e8d4;gradientColor=#97d077;strokeColor=#82b366;exitX=0.504;exitY=1.111;exitDx=0;exitDy=0;exitPerimeter=0;" edge="1" parent="1" source="SsRKTywEvcTNQFfVtIS_-309">
          <mxGeometry relative="1" as="geometry">
            <mxPoint x="-4038" y="3870" as="targetPoint" />
            <Array as="points">
              <mxPoint x="-2509" y="4210" />
              <mxPoint x="-4038" y="4210" />
            </Array>
            <mxPoint x="-2508" y="4100" as="sourcePoint" />
          </mxGeometry>
        </mxCell>
        <mxCell id="SsRKTywEvcTNQFfVtIS_-312" value="Rerour 201" style="edgeLabel;html=1;align=center;verticalAlign=middle;resizable=0;points=[];fontColor=#00CC00;" vertex="1" connectable="0" parent="SsRKTywEvcTNQFfVtIS_-311">
          <mxGeometry x="0.1333" relative="1" as="geometry">
            <mxPoint y="1" as="offset" />
          </mxGeometry>
        </mxCell>
        <mxCell id="SsRKTywEvcTNQFfVtIS_-313" value="Frontend" style="swimlane;whiteSpace=wrap;html=1;fillColor=#dae8fc;strokeColor=#6c8ebf;" vertex="1" parent="1">
          <mxGeometry x="-4037" y="3335" width="520" height="545" as="geometry" />
        </mxCell>
        <mxCell id="SsRKTywEvcTNQFfVtIS_-314" value="DELETE&lt;span style=&quot;white-space: pre;&quot;&gt;&#x9;&lt;/span&gt;/service/:id" style="rounded=0;whiteSpace=wrap;html=1;fillColor=#dae8fc;strokeColor=#6c8ebf;" vertex="1" parent="SsRKTywEvcTNQFfVtIS_-313">
          <mxGeometry x="30" y="44" width="460" height="60" as="geometry" />
        </mxCell>
        <mxCell id="SsRKTywEvcTNQFfVtIS_-321" value="Header" style="swimlane;whiteSpace=wrap;html=1;fillColor=#dae8fc;strokeColor=#6c8ebf;" vertex="1" parent="SsRKTywEvcTNQFfVtIS_-313">
          <mxGeometry x="116" y="215" width="200" height="95" as="geometry" />
        </mxCell>
        <mxCell id="SsRKTywEvcTNQFfVtIS_-322" value="Authorization: token" style="text;html=1;align=left;verticalAlign=middle;whiteSpace=wrap;rounded=0;" vertex="1" parent="SsRKTywEvcTNQFfVtIS_-321">
          <mxGeometry x="10" y="39" width="170" height="30" as="geometry" />
        </mxCell>
        <mxCell id="SsRKTywEvcTNQFfVtIS_-323" style="edgeStyle=orthogonalEdgeStyle;rounded=0;orthogonalLoop=1;jettySize=auto;html=1;entryX=0.548;entryY=1.019;entryDx=0;entryDy=0;entryPerimeter=0;" edge="1" parent="SsRKTywEvcTNQFfVtIS_-313" source="SsRKTywEvcTNQFfVtIS_-321" target="SsRKTywEvcTNQFfVtIS_-314">
          <mxGeometry relative="1" as="geometry" />
        </mxCell>
        <mxCell id="SsRKTywEvcTNQFfVtIS_-327" style="edgeStyle=orthogonalEdgeStyle;rounded=0;orthogonalLoop=1;jettySize=auto;html=1;" edge="1" parent="1" source="SsRKTywEvcTNQFfVtIS_-283" target="SsRKTywEvcTNQFfVtIS_-297">
          <mxGeometry relative="1" as="geometry">
            <Array as="points">
              <mxPoint x="-2078" y="3410" />
              <mxPoint x="-2078" y="3430" />
            </Array>
          </mxGeometry>
        </mxCell>
        <mxCell id="SsRKTywEvcTNQFfVtIS_-329" style="edgeStyle=orthogonalEdgeStyle;rounded=0;orthogonalLoop=1;jettySize=auto;html=1;entryX=1;entryY=0.75;entryDx=0;entryDy=0;" edge="1" parent="1" source="SsRKTywEvcTNQFfVtIS_-297" target="SsRKTywEvcTNQFfVtIS_-283">
          <mxGeometry relative="1" as="geometry">
            <Array as="points">
              <mxPoint x="-2150" y="3460" />
              <mxPoint x="-2150" y="3425" />
            </Array>
          </mxGeometry>
        </mxCell>
        <mxCell id="SsRKTywEvcTNQFfVtIS_-330" value="Récupération service supprimé" style="edgeLabel;html=1;align=center;verticalAlign=middle;resizable=0;points=[];" vertex="1" connectable="0" parent="SsRKTywEvcTNQFfVtIS_-329">
          <mxGeometry x="-0.2905" y="1" relative="1" as="geometry">
            <mxPoint x="-31" as="offset" />
          </mxGeometry>
        </mxCell>
        <mxCell id="SsRKTywEvcTNQFfVtIS_-338" style="edgeStyle=orthogonalEdgeStyle;rounded=0;orthogonalLoop=1;jettySize=auto;html=1;entryX=0;entryY=0.5;entryDx=0;entryDy=0;" edge="1" parent="1" source="SsRKTywEvcTNQFfVtIS_-336" target="SsRKTywEvcTNQFfVtIS_-301">
          <mxGeometry relative="1" as="geometry">
            <Array as="points">
              <mxPoint x="-1987" y="3610" />
              <mxPoint x="-1987" y="3690" />
            </Array>
          </mxGeometry>
        </mxCell>
        <mxCell id="SsRKTywEvcTNQFfVtIS_-339" style="edgeStyle=orthogonalEdgeStyle;rounded=0;orthogonalLoop=1;jettySize=auto;html=1;" edge="1" parent="1" source="SsRKTywEvcTNQFfVtIS_-336" target="SsRKTywEvcTNQFfVtIS_-304">
          <mxGeometry relative="1" as="geometry" />
        </mxCell>
        <mxCell id="SsRKTywEvcTNQFfVtIS_-343" style="edgeStyle=orthogonalEdgeStyle;rounded=0;orthogonalLoop=1;jettySize=auto;html=1;entryX=0.5;entryY=0;entryDx=0;entryDy=0;" edge="1" parent="1" source="SsRKTywEvcTNQFfVtIS_-328" target="SsRKTywEvcTNQFfVtIS_-306">
          <mxGeometry relative="1" as="geometry">
            <Array as="points">
              <mxPoint x="-2510" y="3750" />
              <mxPoint x="-2510" y="3750" />
            </Array>
          </mxGeometry>
        </mxCell>
        <mxCell id="SsRKTywEvcTNQFfVtIS_-345" value="sinon" style="edgeLabel;html=1;align=center;verticalAlign=middle;resizable=0;points=[];" vertex="1" connectable="0" parent="SsRKTywEvcTNQFfVtIS_-343">
          <mxGeometry x="-0.769" y="2" relative="1" as="geometry">
            <mxPoint as="offset" />
          </mxGeometry>
        </mxCell>
        <mxCell id="SsRKTywEvcTNQFfVtIS_-344" style="edgeStyle=orthogonalEdgeStyle;rounded=0;orthogonalLoop=1;jettySize=auto;html=1;entryX=0.682;entryY=0.039;entryDx=0;entryDy=0;entryPerimeter=0;" edge="1" parent="1" source="SsRKTywEvcTNQFfVtIS_-336" target="SsRKTywEvcTNQFfVtIS_-306">
          <mxGeometry relative="1" as="geometry">
            <Array as="points">
              <mxPoint x="-2170" y="3680" />
              <mxPoint x="-2470" y="3680" />
            </Array>
          </mxGeometry>
        </mxCell>
      </root>
    </mxGraphModel>
  </diagram>
</mxfile>
